<?xml version="1.0" encoding="utf-8" standalone="no"?>
<!DOCTYPE svg PUBLIC "-//W3C//DTD SVG 1.1//EN"
  "http://www.w3.org/Graphics/SVG/1.1/DTD/svg11.dtd">
<svg xmlns:xlink="http://www.w3.org/1999/xlink" width="432pt" height="288pt" viewBox="0 0 432 288" xmlns="http://www.w3.org/2000/svg" version="1.1">
 <metadata>
  <rdf:RDF xmlns:dc="http://purl.org/dc/elements/1.1/" xmlns:cc="http://creativecommons.org/ns#" xmlns:rdf="http://www.w3.org/1999/02/22-rdf-syntax-ns#">
   <cc:Work>
    <dc:type rdf:resource="http://purl.org/dc/dcmitype/StillImage"/>
    <dc:date>2022-02-17T23:43:46.545167</dc:date>
    <dc:format>image/svg+xml</dc:format>
    <dc:creator>
     <cc:Agent>
      <dc:title>Matplotlib v3.5.1, https://matplotlib.org/</dc:title>
     </cc:Agent>
    </dc:creator>
   </cc:Work>
  </rdf:RDF>
 </metadata>
 <defs>
  <style type="text/css">*{stroke-linejoin: round; stroke-linecap: butt}</style>
 </defs>
 <g id="figure_1">
  <g id="patch_1">
   <path d="M 0 288 
L 432 288 
L 432 0 
L 0 0 
L 0 288 
z
" style="fill: none"/>
  </g>
  <g id="axes_1">
   <g id="patch_2">
    <path d="M 54 252 
L 388.8 252 
L 388.8 34.56 
L 54 34.56 
z
" style="fill: #ffffff"/>
   </g>
   <g id="patch_3">
    <path d="M 109.8 227.280916 
L 109.8 227.280916 
L 109.8 227.280916 
L 109.8 227.280916 
z
" clip-path="url(#p8f0ba6889b)" style="fill: #3274a1; stroke: #3f3f3f; stroke-width: 0.75; stroke-linejoin: miter"/>
   </g>
   <g id="PolyCollection_1">
    <defs>
     <path id="me406b4a5c3" d="M 109.8 -46.96761 
L 109.652863 -46.96761 
L 109.584448 -48.866518 
L 109.494478 -50.765427 
L 109.380832 -52.664335 
L 109.243053 -54.563243 
L 109.082889 -56.462151 
L 108.904589 -58.361059 
L 108.714778 -60.259967 
L 108.521835 -62.158875 
L 108.334742 -64.057784 
L 108.161481 -65.956692 
L 108.007163 -67.8556 
L 107.872137 -69.754508 
L 107.750382 -71.653416 
L 107.628469 -73.552324 
L 107.485352 -75.451233 
L 107.293146 -77.350141 
L 107.018943 -79.249049 
L 106.627557 -81.147957 
L 106.084953 -83.046865 
L 105.361955 -84.945773 
L 104.437713 -86.844681 
L 103.302395 -88.74359 
L 101.958569 -90.642498 
L 100.420954 -92.541406 
L 98.714401 -94.440314 
L 96.870361 -96.339222 
L 94.922336 -98.23813 
L 92.901147 -100.137038 
L 90.830918 -102.035947 
L 88.726656 -103.934855 
L 86.594087 -105.833763 
L 84.431977 -107.732671 
L 82.236738 -109.631579 
L 80.008577 -111.530487 
L 77.758037 -113.429396 
L 75.511519 -115.328304 
L 73.314365 -117.227212 
L 71.230329 -119.12612 
L 69.336915 -121.025028 
L 67.716803 -122.923936 
L 66.446541 -124.822844 
L 65.584436 -126.721753 
L 65.16 -128.620661 
L 65.167289 -130.519569 
L 65.563812 -132.418477 
L 66.275667 -134.317385 
L 67.208225 -136.216293 
L 68.260483 -138.115202 
L 69.340328 -140.01411 
L 70.377766 -141.913018 
L 71.333554 -143.811926 
L 72.201785 -145.710834 
L 73.006285 -147.609742 
L 73.792083 -149.50865 
L 74.614147 -151.407559 
L 75.526008 -153.306467 
L 76.570548 -155.205375 
L 77.774419 -157.104283 
L 79.146418 -159.003191 
L 80.679182 -160.902099 
L 82.352848 -162.801008 
L 84.139269 -164.699916 
L 86.005667 -166.598824 
L 87.917224 -168.497732 
L 89.838717 -170.39664 
L 91.735655 -172.295548 
L 93.575399 -174.194456 
L 95.328535 -176.093365 
L 96.970377 -177.992273 
L 98.48227 -179.891181 
L 99.85227 -181.790089 
L 101.074974 -183.688997 
L 102.15053 -185.587905 
L 103.083149 -187.486813 
L 103.879568 -189.385722 
L 104.547871 -191.28463 
L 105.09692 -193.183538 
L 105.536402 -195.082446 
L 105.877298 -196.981354 
L 106.132502 -198.880262 
L 106.317248 -200.779171 
L 106.449109 -202.678079 
L 106.547431 -204.576987 
L 106.632184 -206.475895 
L 106.722366 -208.374803 
L 106.834191 -210.273711 
L 106.979394 -212.172619 
L 107.163982 -214.071528 
L 107.387726 -215.970436 
L 107.644535 -217.869344 
L 107.923688 -219.768252 
L 108.211691 -221.66716 
L 108.494406 -223.566068 
L 108.759056 -225.464977 
L 108.995744 -227.363885 
L 109.198289 -229.262793 
L 109.364338 -231.161701 
L 109.494883 -233.060609 
L 109.593382 -234.959517 
L 109.8 -234.959517 
L 109.8 -234.959517 
L 109.8 -233.060609 
L 109.8 -231.161701 
L 109.8 -229.262793 
L 109.8 -227.363885 
L 109.8 -225.464977 
L 109.8 -223.566068 
L 109.8 -221.66716 
L 109.8 -219.768252 
L 109.8 -217.869344 
L 109.8 -215.970436 
L 109.8 -214.071528 
L 109.8 -212.172619 
L 109.8 -210.273711 
L 109.8 -208.374803 
L 109.8 -206.475895 
L 109.8 -204.576987 
L 109.8 -202.678079 
L 109.8 -200.779171 
L 109.8 -198.880262 
L 109.8 -196.981354 
L 109.8 -195.082446 
L 109.8 -193.183538 
L 109.8 -191.28463 
L 109.8 -189.385722 
L 109.8 -187.486813 
L 109.8 -185.587905 
L 109.8 -183.688997 
L 109.8 -181.790089 
L 109.8 -179.891181 
L 109.8 -177.992273 
L 109.8 -176.093365 
L 109.8 -174.194456 
L 109.8 -172.295548 
L 109.8 -170.39664 
L 109.8 -168.497732 
L 109.8 -166.598824 
L 109.8 -164.699916 
L 109.8 -162.801008 
L 109.8 -160.902099 
L 109.8 -159.003191 
L 109.8 -157.104283 
L 109.8 -155.205375 
L 109.8 -153.306467 
L 109.8 -151.407559 
L 109.8 -149.50865 
L 109.8 -147.609742 
L 109.8 -145.710834 
L 109.8 -143.811926 
L 109.8 -141.913018 
L 109.8 -140.01411 
L 109.8 -138.115202 
L 109.8 -136.216293 
L 109.8 -134.317385 
L 109.8 -132.418477 
L 109.8 -130.519569 
L 109.8 -128.620661 
L 109.8 -126.721753 
L 109.8 -124.822844 
L 109.8 -122.923936 
L 109.8 -121.025028 
L 109.8 -119.12612 
L 109.8 -117.227212 
L 109.8 -115.328304 
L 109.8 -113.429396 
L 109.8 -111.530487 
L 109.8 -109.631579 
L 109.8 -107.732671 
L 109.8 -105.833763 
L 109.8 -103.934855 
L 109.8 -102.035947 
L 109.8 -100.137038 
L 109.8 -98.23813 
L 109.8 -96.339222 
L 109.8 -94.440314 
L 109.8 -92.541406 
L 109.8 -90.642498 
L 109.8 -88.74359 
L 109.8 -86.844681 
L 109.8 -84.945773 
L 109.8 -83.046865 
L 109.8 -81.147957 
L 109.8 -79.249049 
L 109.8 -77.350141 
L 109.8 -75.451233 
L 109.8 -73.552324 
L 109.8 -71.653416 
L 109.8 -69.754508 
L 109.8 -67.8556 
L 109.8 -65.956692 
L 109.8 -64.057784 
L 109.8 -62.158875 
L 109.8 -60.259967 
L 109.8 -58.361059 
L 109.8 -56.462151 
L 109.8 -54.563243 
L 109.8 -52.664335 
L 109.8 -50.765427 
L 109.8 -48.866518 
L 109.8 -46.96761 
z
" style="stroke: #3f3f3f; stroke-width: 1.5"/>
    </defs>
    <g clip-path="url(#p8f0ba6889b)">
     <use xlink:href="#me406b4a5c3" x="0" y="288" style="fill: #3274a1; stroke: #3f3f3f; stroke-width: 1.5"/>
    </g>
   </g>
   <g id="patch_4">
    <path d="M 109.8 227.280916 
L 109.8 227.280916 
L 109.8 227.280916 
L 109.8 227.280916 
z
" clip-path="url(#p8f0ba6889b)" style="fill: #e1812c; stroke: #3f3f3f; stroke-width: 0.75; stroke-linejoin: miter"/>
   </g>
   <g id="PolyCollection_2">
    <defs>
     <path id="m71254600b1" d="M 110.021035 -45.883636 
L 109.8 -45.883636 
L 109.8 -47.723535 
L 109.8 -49.563434 
L 109.8 -51.403332 
L 109.8 -53.243231 
L 109.8 -55.08313 
L 109.8 -56.923028 
L 109.8 -58.762927 
L 109.8 -60.602826 
L 109.8 -62.442725 
L 109.8 -64.282623 
L 109.8 -66.122522 
L 109.8 -67.962421 
L 109.8 -69.802319 
L 109.8 -71.642218 
L 109.8 -73.482117 
L 109.8 -75.322015 
L 109.8 -77.161914 
L 109.8 -79.001813 
L 109.8 -80.841711 
L 109.8 -82.68161 
L 109.8 -84.521509 
L 109.8 -86.361408 
L 109.8 -88.201306 
L 109.8 -90.041205 
L 109.8 -91.881104 
L 109.8 -93.721002 
L 109.8 -95.560901 
L 109.8 -97.4008 
L 109.8 -99.240698 
L 109.8 -101.080597 
L 109.8 -102.920496 
L 109.8 -104.760394 
L 109.8 -106.600293 
L 109.8 -108.440192 
L 109.8 -110.28009 
L 109.8 -112.119989 
L 109.8 -113.959888 
L 109.8 -115.799787 
L 109.8 -117.639685 
L 109.8 -119.479584 
L 109.8 -121.319483 
L 109.8 -123.159381 
L 109.8 -124.99928 
L 109.8 -126.839179 
L 109.8 -128.679077 
L 109.8 -130.518976 
L 109.8 -132.358875 
L 109.8 -134.198773 
L 109.8 -136.038672 
L 109.8 -137.878571 
L 109.8 -139.71847 
L 109.8 -141.558368 
L 109.8 -143.398267 
L 109.8 -145.238166 
L 109.8 -147.078064 
L 109.8 -148.917963 
L 109.8 -150.757862 
L 109.8 -152.59776 
L 109.8 -154.437659 
L 109.8 -156.277558 
L 109.8 -158.117456 
L 109.8 -159.957355 
L 109.8 -161.797254 
L 109.8 -163.637152 
L 109.8 -165.477051 
L 109.8 -167.31695 
L 109.8 -169.156849 
L 109.8 -170.996747 
L 109.8 -172.836646 
L 109.8 -174.676545 
L 109.8 -176.516443 
L 109.8 -178.356342 
L 109.8 -180.196241 
L 109.8 -182.036139 
L 109.8 -183.876038 
L 109.8 -185.715937 
L 109.8 -187.555835 
L 109.8 -189.395734 
L 109.8 -191.235633 
L 109.8 -193.075531 
L 109.8 -194.91543 
L 109.8 -196.755329 
L 109.8 -198.595228 
L 109.8 -200.435126 
L 109.8 -202.275025 
L 109.8 -204.114924 
L 109.8 -205.954822 
L 109.8 -207.794721 
L 109.8 -209.63462 
L 109.8 -211.474518 
L 109.8 -213.314417 
L 109.8 -215.154316 
L 109.8 -216.994214 
L 109.8 -218.834113 
L 109.8 -220.674012 
L 109.8 -222.513911 
L 109.8 -224.353809 
L 109.8 -226.193708 
L 109.8 -228.033607 
L 110.110816 -228.033607 
L 110.110816 -228.033607 
L 110.232872 -226.193708 
L 110.389129 -224.353809 
L 110.584022 -222.513911 
L 110.821046 -220.674012 
L 111.102453 -218.834113 
L 111.429137 -216.994214 
L 111.80076 -215.154316 
L 112.216141 -213.314417 
L 112.673873 -211.474518 
L 113.173043 -209.63462 
L 113.713916 -207.794721 
L 114.298398 -205.954822 
L 114.930132 -204.114924 
L 115.614156 -202.275025 
L 116.356149 -200.435126 
L 117.161406 -198.595228 
L 118.033751 -196.755329 
L 118.974664 -194.91543 
L 119.982821 -193.075531 
L 121.054207 -191.235633 
L 122.182777 -189.395734 
L 123.36155 -187.555835 
L 124.583874 -185.715937 
L 125.84457 -183.876038 
L 127.140676 -182.036139 
L 128.471591 -180.196241 
L 129.838575 -178.356342 
L 131.243673 -176.516443 
L 132.6883 -174.676545 
L 134.171749 -172.836646 
L 135.689936 -170.996747 
L 137.234612 -169.156849 
L 138.793173 -167.31695 
L 140.349082 -165.477051 
L 141.882786 -163.637152 
L 143.372943 -161.797254 
L 144.797736 -159.957355 
L 146.136089 -158.117456 
L 147.368629 -156.277558 
L 148.478342 -154.437659 
L 149.450921 -152.59776 
L 150.27485 -150.757862 
L 150.941268 -148.917963 
L 151.443679 -147.078064 
L 151.777493 -145.238166 
L 151.93945 -143.398267 
L 151.926925 -141.558368 
L 151.737203 -139.71847 
L 151.366845 -137.878571 
L 150.811326 -136.038672 
L 150.065138 -134.198773 
L 149.122506 -132.358875 
L 147.978757 -130.518976 
L 146.632241 -128.679077 
L 145.08653 -126.839179 
L 143.352508 -124.99928 
L 141.449903 -123.159381 
L 139.407865 -121.319483 
L 137.264343 -119.479584 
L 135.06421 -117.639685 
L 132.856339 -115.799787 
L 130.69001 -113.959888 
L 128.611172 -112.119989 
L 126.659086 -110.28009 
L 124.863828 -108.440192 
L 123.244931 -106.600293 
L 121.811277 -104.760394 
L 120.562127 -102.920496 
L 119.488988 -101.080597 
L 118.577949 -99.240698 
L 117.81203 -97.4008 
L 117.173217 -95.560901 
L 116.643885 -93.721002 
L 116.207552 -91.881104 
L 115.849004 -90.041205 
L 115.553984 -88.201306 
L 115.308711 -86.361408 
L 115.099472 -84.521509 
L 114.912513 -82.68161 
L 114.734291 -80.841711 
L 114.552089 -79.001813 
L 114.354859 -77.161914 
L 114.1341 -75.322015 
L 113.884586 -73.482117 
L 113.604783 -71.642218 
L 113.296847 -69.802319 
L 112.966224 -67.962421 
L 112.620895 -66.122522 
L 112.270394 -64.282623 
L 111.92475 -62.442725 
L 111.59349 -60.602826 
L 111.284811 -58.762927 
L 111.005005 -56.923028 
L 110.758169 -55.08313 
L 110.546171 -53.243231 
L 110.368853 -51.403332 
L 110.224386 -49.563434 
L 110.109716 -47.723535 
L 110.021035 -45.883636 
z
" style="stroke: #3f3f3f; stroke-width: 1.5"/>
    </defs>
    <g clip-path="url(#p8f0ba6889b)">
     <use xlink:href="#m71254600b1" x="0" y="288" style="fill: #e1812c; stroke: #3f3f3f; stroke-width: 1.5"/>
    </g>
   </g>
   <g id="PolyCollection_3">
    <defs>
     <path id="m6f6b5b2de9" d="M 221.4 -60.460721 
L 221.273939 -60.460721 
L 221.211825 -61.751477 
L 221.127585 -63.042234 
L 221.017186 -64.33299 
L 220.877238 -65.623747 
L 220.705379 -66.914503 
L 220.500484 -68.20526 
L 220.262584 -69.496016 
L 219.99238 -70.786773 
L 219.69037 -72.077529 
L 219.35564 -73.368286 
L 218.984548 -74.659042 
L 218.569573 -75.949799 
L 218.098677 -77.240555 
L 217.555491 -78.531312 
L 216.920525 -79.822068 
L 216.173399 -81.112824 
L 215.295878 -82.403581 
L 214.275235 -83.694337 
L 213.107322 -84.985094 
L 211.798678 -86.27585 
L 210.367146 -87.566607 
L 208.840727 -88.857363 
L 207.254768 -90.14812 
L 205.647954 -91.438876 
L 204.057832 -92.729633 
L 202.516709 -94.020389 
L 201.048618 -95.311146 
L 199.667805 -96.601902 
L 198.378819 -97.892659 
L 197.177929 -99.183415 
L 196.055437 -100.474172 
L 194.998363 -101.764928 
L 193.993154 -103.055685 
L 193.028192 -104.346441 
L 192.096078 -105.637198 
L 191.195657 -106.927954 
L 190.333696 -108.218711 
L 189.52595 -109.509467 
L 188.797234 -110.800224 
L 188.180176 -112.09098 
L 187.712512 -113.381737 
L 187.433155 -114.672493 
L 187.377614 -115.96325 
L 187.573568 -117.254006 
L 188.03739 -118.544763 
L 188.772166 -119.835519 
L 189.767395 -121.126276 
L 191.000151 -122.417032 
L 192.437282 -123.707789 
L 194.038081 -124.998545 
L 195.757023 -126.289301 
L 197.546274 -127.580058 
L 199.357907 -128.870814 
L 201.145876 -130.161571 
L 202.867847 -131.452327 
L 204.486999 -132.743084 
L 205.973822 -134.03384 
L 207.307855 -135.324597 
L 208.479153 -136.615353 
L 209.489182 -137.90611 
L 210.350811 -139.196866 
L 211.087107 -140.487623 
L 211.728839 -141.778379 
L 212.310872 -143.069136 
L 212.867879 -144.359892 
L 213.430037 -145.650649 
L 214.019408 -146.941405 
L 214.647584 -148.232162 
L 215.314941 -149.522918 
L 216.011514 -150.813675 
L 216.719218 -152.104431 
L 217.414934 -153.395188 
L 218.073899 -154.685944 
L 218.672866 -155.976701 
L 219.19266 -157.267457 
L 219.619914 -158.558214 
L 219.947938 -159.84897 
L 220.176834 -161.139727 
L 220.313014 -162.430483 
L 220.368303 -163.72124 
L 220.358757 -165.011996 
L 220.30329 -166.302753 
L 220.222145 -167.593509 
L 220.135266 -168.884265 
L 220.060661 -170.175022 
L 220.012887 -171.465778 
L 220.001872 -172.756535 
L 220.032241 -174.047291 
L 220.103294 -175.338048 
L 220.209649 -176.628804 
L 220.34246 -177.919561 
L 220.490979 -179.210317 
L 220.644188 -180.501074 
L 220.792223 -181.79183 
L 220.927392 -183.082587 
L 221.044677 -184.373343 
L 221.141745 -185.6641 
L 221.218566 -186.954856 
L 221.276811 -188.245613 
L 221.4 -188.245613 
L 221.4 -188.245613 
L 221.4 -186.954856 
L 221.4 -185.6641 
L 221.4 -184.373343 
L 221.4 -183.082587 
L 221.4 -181.79183 
L 221.4 -180.501074 
L 221.4 -179.210317 
L 221.4 -177.919561 
L 221.4 -176.628804 
L 221.4 -175.338048 
L 221.4 -174.047291 
L 221.4 -172.756535 
L 221.4 -171.465778 
L 221.4 -170.175022 
L 221.4 -168.884265 
L 221.4 -167.593509 
L 221.4 -166.302753 
L 221.4 -165.011996 
L 221.4 -163.72124 
L 221.4 -162.430483 
L 221.4 -161.139727 
L 221.4 -159.84897 
L 221.4 -158.558214 
L 221.4 -157.267457 
L 221.4 -155.976701 
L 221.4 -154.685944 
L 221.4 -153.395188 
L 221.4 -152.104431 
L 221.4 -150.813675 
L 221.4 -149.522918 
L 221.4 -148.232162 
L 221.4 -146.941405 
L 221.4 -145.650649 
L 221.4 -144.359892 
L 221.4 -143.069136 
L 221.4 -141.778379 
L 221.4 -140.487623 
L 221.4 -139.196866 
L 221.4 -137.90611 
L 221.4 -136.615353 
L 221.4 -135.324597 
L 221.4 -134.03384 
L 221.4 -132.743084 
L 221.4 -131.452327 
L 221.4 -130.161571 
L 221.4 -128.870814 
L 221.4 -127.580058 
L 221.4 -126.289301 
L 221.4 -124.998545 
L 221.4 -123.707789 
L 221.4 -122.417032 
L 221.4 -121.126276 
L 221.4 -119.835519 
L 221.4 -118.544763 
L 221.4 -117.254006 
L 221.4 -115.96325 
L 221.4 -114.672493 
L 221.4 -113.381737 
L 221.4 -112.09098 
L 221.4 -110.800224 
L 221.4 -109.509467 
L 221.4 -108.218711 
L 221.4 -106.927954 
L 221.4 -105.637198 
L 221.4 -104.346441 
L 221.4 -103.055685 
L 221.4 -101.764928 
L 221.4 -100.474172 
L 221.4 -99.183415 
L 221.4 -97.892659 
L 221.4 -96.601902 
L 221.4 -95.311146 
L 221.4 -94.020389 
L 221.4 -92.729633 
L 221.4 -91.438876 
L 221.4 -90.14812 
L 221.4 -88.857363 
L 221.4 -87.566607 
L 221.4 -86.27585 
L 221.4 -84.985094 
L 221.4 -83.694337 
L 221.4 -82.403581 
L 221.4 -81.112824 
L 221.4 -79.822068 
L 221.4 -78.531312 
L 221.4 -77.240555 
L 221.4 -75.949799 
L 221.4 -74.659042 
L 221.4 -73.368286 
L 221.4 -72.077529 
L 221.4 -70.786773 
L 221.4 -69.496016 
L 221.4 -68.20526 
L 221.4 -66.914503 
L 221.4 -65.623747 
L 221.4 -64.33299 
L 221.4 -63.042234 
L 221.4 -61.751477 
L 221.4 -60.460721 
z
" style="stroke: #3f3f3f; stroke-width: 1.5"/>
    </defs>
    <g clip-path="url(#p8f0ba6889b)">
     <use xlink:href="#m6f6b5b2de9" x="0" y="288" style="fill: #3274a1; stroke: #3f3f3f; stroke-width: 1.5"/>
    </g>
   </g>
   <g id="PolyCollection_4">
    <defs>
     <path id="m4899336378" d="M 221.888045 -136.106015 
L 221.4 -136.106015 
L 221.4 -136.85043 
L 221.4 -137.594845 
L 221.4 -138.33926 
L 221.4 -139.083675 
L 221.4 -139.82809 
L 221.4 -140.572505 
L 221.4 -141.31692 
L 221.4 -142.061335 
L 221.4 -142.80575 
L 221.4 -143.550165 
L 221.4 -144.29458 
L 221.4 -145.038995 
L 221.4 -145.78341 
L 221.4 -146.527825 
L 221.4 -147.27224 
L 221.4 -148.016655 
L 221.4 -148.76107 
L 221.4 -149.505485 
L 221.4 -150.2499 
L 221.4 -150.994315 
L 221.4 -151.73873 
L 221.4 -152.483145 
L 221.4 -153.22756 
L 221.4 -153.971975 
L 221.4 -154.71639 
L 221.4 -155.460805 
L 221.4 -156.20522 
L 221.4 -156.949635 
L 221.4 -157.69405 
L 221.4 -158.438465 
L 221.4 -159.18288 
L 221.4 -159.927295 
L 221.4 -160.67171 
L 221.4 -161.416125 
L 221.4 -162.16054 
L 221.4 -162.904955 
L 221.4 -163.64937 
L 221.4 -164.393785 
L 221.4 -165.1382 
L 221.4 -165.882615 
L 221.4 -166.62703 
L 221.4 -167.371445 
L 221.4 -168.11586 
L 221.4 -168.860275 
L 221.4 -169.60469 
L 221.4 -170.349105 
L 221.4 -171.09352 
L 221.4 -171.837935 
L 221.4 -172.58235 
L 221.4 -173.326765 
L 221.4 -174.07118 
L 221.4 -174.815595 
L 221.4 -175.56001 
L 221.4 -176.304425 
L 221.4 -177.04884 
L 221.4 -177.793255 
L 221.4 -178.53767 
L 221.4 -179.282085 
L 221.4 -180.0265 
L 221.4 -180.770915 
L 221.4 -181.51533 
L 221.4 -182.259745 
L 221.4 -183.00416 
L 221.4 -183.748575 
L 221.4 -184.49299 
L 221.4 -185.237405 
L 221.4 -185.98182 
L 221.4 -186.726235 
L 221.4 -187.47065 
L 221.4 -188.215065 
L 221.4 -188.95948 
L 221.4 -189.703895 
L 221.4 -190.44831 
L 221.4 -191.192725 
L 221.4 -191.93714 
L 221.4 -192.681555 
L 221.4 -193.42597 
L 221.4 -194.170385 
L 221.4 -194.9148 
L 221.4 -195.659215 
L 221.4 -196.40363 
L 221.4 -197.148045 
L 221.4 -197.89246 
L 221.4 -198.636875 
L 221.4 -199.38129 
L 221.4 -200.125705 
L 221.4 -200.87012 
L 221.4 -201.614535 
L 221.4 -202.35895 
L 221.4 -203.103365 
L 221.4 -203.84778 
L 221.4 -204.592195 
L 221.4 -205.33661 
L 221.4 -206.081025 
L 221.4 -206.82544 
L 221.4 -207.569855 
L 221.4 -208.31427 
L 221.4 -209.058685 
L 221.4 -209.8031 
L 221.826338 -209.8031 
L 221.826338 -209.8031 
L 221.979462 -209.058685 
L 222.173519 -208.31427 
L 222.414531 -207.569855 
L 222.708003 -206.82544 
L 223.058571 -206.081025 
L 223.469712 -205.33661 
L 223.943585 -204.592195 
L 224.481032 -203.84778 
L 225.081786 -203.103365 
L 225.744874 -202.35895 
L 226.469176 -201.614535 
L 227.254061 -200.87012 
L 228.099988 -200.125705 
L 229.008948 -199.38129 
L 229.984626 -198.636875 
L 231.032183 -197.89246 
L 232.15763 -197.148045 
L 233.366814 -196.40363 
L 234.664127 -195.659215 
L 236.051113 -194.9148 
L 237.525188 -194.170385 
L 239.078722 -193.42597 
L 240.698679 -192.681555 
L 242.366959 -191.93714 
L 244.061479 -191.192725 
L 245.757897 -190.44831 
L 247.431781 -189.703895 
L 249.060916 -188.95948 
L 250.627389 -188.215065 
L 252.119135 -187.47065 
L 253.530663 -186.726235 
L 254.86282 -185.98182 
L 256.121616 -185.237405 
L 257.316254 -184.49299 
L 258.456677 -183.748575 
L 259.550977 -183.00416 
L 260.603072 -182.259745 
L 261.610982 -181.51533 
L 262.565942 -180.770915 
L 263.452491 -180.0265 
L 264.249516 -179.282085 
L 264.932099 -178.53767 
L 265.473966 -177.793255 
L 265.850209 -177.04884 
L 266.04 -176.304425 
L 266.028957 -175.56001 
L 265.810937 -174.815595 
L 265.389035 -174.07118 
L 264.775699 -173.326765 
L 263.991923 -172.58235 
L 263.06561 -171.837935 
L 262.029267 -171.09352 
L 260.917258 -170.349105 
L 259.762918 -169.60469 
L 258.595823 -168.860275 
L 257.439531 -168.11586 
L 256.310005 -167.371445 
L 255.21493 -166.62703 
L 254.15394 -165.882615 
L 253.119739 -165.1382 
L 252.099951 -164.393785 
L 251.079439 -163.64937 
L 250.042815 -162.904955 
L 248.976807 -162.16054 
L 247.872207 -161.416125 
L 246.725177 -160.67171 
L 245.537785 -159.927295 
L 244.317764 -159.18288 
L 243.077575 -158.438465 
L 241.83294 -157.69405 
L 240.60109 -156.949635 
L 239.398943 -156.20522 
L 238.241451 -155.460805 
L 237.140287 -154.71639 
L 236.10298 -153.971975 
L 235.132558 -153.22756 
L 234.227675 -152.483145 
L 233.383163 -151.73873 
L 232.590917 -150.994315 
L 231.840999 -150.2499 
L 231.122832 -149.505485 
L 230.426381 -148.76107 
L 229.74319 -148.016655 
L 229.067207 -147.27224 
L 228.395297 -146.527825 
L 227.727437 -145.78341 
L 227.066557 -145.038995 
L 226.418074 -144.29458 
L 225.789188 -143.550165 
L 225.18802 -142.80575 
L 224.622713 -142.061335 
L 224.100591 -141.31692 
L 223.627478 -140.572505 
L 223.207234 -139.82809 
L 222.841537 -139.083675 
L 222.529905 -138.33926 
L 222.269933 -137.594845 
L 222.057662 -136.85043 
L 221.888045 -136.106015 
z
" style="stroke: #3f3f3f; stroke-width: 1.5"/>
    </defs>
    <g clip-path="url(#p8f0ba6889b)">
     <use xlink:href="#m4899336378" x="0" y="288" style="fill: #e1812c; stroke: #3f3f3f; stroke-width: 1.5"/>
    </g>
   </g>
   <g id="PolyCollection_5">
    <defs>
     <path id="mae8d9cd44d" d="M 333 -83.016492 
L 332.655913 -83.016492 
L 332.424696 -84.422998 
L 332.084918 -85.829505 
L 331.613798 -87.236012 
L 330.997284 -88.642519 
L 330.235182 -90.049026 
L 329.343535 -91.455532 
L 328.352426 -92.862039 
L 327.298831 -94.268546 
L 326.216317 -95.675053 
L 325.125196 -97.081559 
L 324.027269 -98.488066 
L 322.907714 -99.894573 
L 321.743557 -101.30108 
L 320.514803 -102.707587 
L 319.21255 -104.114093 
L 317.839431 -105.5206 
L 316.401334 -106.927107 
L 314.893984 -108.333614 
L 313.291292 -109.74012 
L 311.542673 -111.146627 
L 309.583339 -112.553134 
L 307.356198 -113.959641 
L 304.838784 -115.366148 
L 302.065866 -116.772654 
L 299.139362 -118.179161 
L 296.2214 -119.585668 
L 293.51205 -120.992175 
L 291.217921 -122.398682 
L 289.519818 -123.805188 
L 288.546655 -125.211695 
L 288.36 -126.618202 
L 288.950622 -128.024709 
L 290.246186 -129.431215 
L 292.127916 -130.837722 
L 294.452863 -132.244229 
L 297.077189 -133.650736 
L 299.875138 -135.057243 
L 302.749087 -136.463749 
L 305.628863 -137.870256 
L 308.462433 -139.276763 
L 311.203493 -140.68327 
L 313.802501 -142.089776 
L 316.205584 -143.496283 
L 318.361722 -144.90279 
L 320.234482 -146.309297 
L 321.812562 -147.715804 
L 323.114214 -149.12231 
L 324.183578 -150.528817 
L 325.080452 -151.935324 
L 325.867279 -153.341831 
L 326.597548 -154.748338 
L 327.308384 -156.154844 
L 328.018162 -157.561351 
L 328.728254 -158.967858 
L 329.427323 -160.374365 
L 330.0966 -161.780871 
L 330.715101 -163.187378 
L 331.264111 -164.593885 
L 331.730516 -166.000392 
L 332.108656 -167.406899 
L 332.40055 -168.813405 
L 332.614658 -170.219912 
L 332.763656 -171.626419 
L 332.861905 -173.032926 
L 332.923231 -174.439432 
L 332.959439 -175.845939 
L 332.979651 -177.252446 
L 332.990312 -178.658953 
L 332.995624 -180.06546 
L 332.998122 -181.471966 
L 332.99922 -182.878473 
L 332.999649 -184.28498 
L 332.999732 -185.691487 
L 332.999547 -187.097994 
L 332.998973 -188.5045 
L 332.997656 -189.911007 
L 332.994893 -191.317514 
L 332.989465 -192.724021 
L 332.97944 -194.130527 
L 332.962045 -195.537034 
L 332.933723 -196.943541 
L 332.890531 -198.350048 
L 332.828975 -199.756555 
L 332.747262 -201.163061 
L 332.646719 -202.569568 
L 332.532898 -203.976075 
L 332.415826 -205.382582 
L 332.308943 -206.789088 
L 332.22674 -208.195595 
L 332.181577 -209.602102 
L 332.180649 -211.008609 
L 332.224106 -212.415116 
L 332.305015 -213.821622 
L 332.411171 -215.228129 
L 332.528108 -216.634636 
L 332.642286 -218.041143 
L 332.74351 -219.44765 
L 332.826042 -220.854156 
L 332.888401 -222.260663 
L 333 -222.260663 
L 333 -222.260663 
L 333 -220.854156 
L 333 -219.44765 
L 333 -218.041143 
L 333 -216.634636 
L 333 -215.228129 
L 333 -213.821622 
L 333 -212.415116 
L 333 -211.008609 
L 333 -209.602102 
L 333 -208.195595 
L 333 -206.789088 
L 333 -205.382582 
L 333 -203.976075 
L 333 -202.569568 
L 333 -201.163061 
L 333 -199.756555 
L 333 -198.350048 
L 333 -196.943541 
L 333 -195.537034 
L 333 -194.130527 
L 333 -192.724021 
L 333 -191.317514 
L 333 -189.911007 
L 333 -188.5045 
L 333 -187.097994 
L 333 -185.691487 
L 333 -184.28498 
L 333 -182.878473 
L 333 -181.471966 
L 333 -180.06546 
L 333 -178.658953 
L 333 -177.252446 
L 333 -175.845939 
L 333 -174.439432 
L 333 -173.032926 
L 333 -171.626419 
L 333 -170.219912 
L 333 -168.813405 
L 333 -167.406899 
L 333 -166.000392 
L 333 -164.593885 
L 333 -163.187378 
L 333 -161.780871 
L 333 -160.374365 
L 333 -158.967858 
L 333 -157.561351 
L 333 -156.154844 
L 333 -154.748338 
L 333 -153.341831 
L 333 -151.935324 
L 333 -150.528817 
L 333 -149.12231 
L 333 -147.715804 
L 333 -146.309297 
L 333 -144.90279 
L 333 -143.496283 
L 333 -142.089776 
L 333 -140.68327 
L 333 -139.276763 
L 333 -137.870256 
L 333 -136.463749 
L 333 -135.057243 
L 333 -133.650736 
L 333 -132.244229 
L 333 -130.837722 
L 333 -129.431215 
L 333 -128.024709 
L 333 -126.618202 
L 333 -125.211695 
L 333 -123.805188 
L 333 -122.398682 
L 333 -120.992175 
L 333 -119.585668 
L 333 -118.179161 
L 333 -116.772654 
L 333 -115.366148 
L 333 -113.959641 
L 333 -112.553134 
L 333 -111.146627 
L 333 -109.74012 
L 333 -108.333614 
L 333 -106.927107 
L 333 -105.5206 
L 333 -104.114093 
L 333 -102.707587 
L 333 -101.30108 
L 333 -99.894573 
L 333 -98.488066 
L 333 -97.081559 
L 333 -95.675053 
L 333 -94.268546 
L 333 -92.862039 
L 333 -91.455532 
L 333 -90.049026 
L 333 -88.642519 
L 333 -87.236012 
L 333 -85.829505 
L 333 -84.422998 
L 333 -83.016492 
z
" style="stroke: #3f3f3f; stroke-width: 1.5"/>
    </defs>
    <g clip-path="url(#p8f0ba6889b)">
     <use xlink:href="#mae8d9cd44d" x="0" y="288" style="fill: #3274a1; stroke: #3f3f3f; stroke-width: 1.5"/>
    </g>
   </g>
   <g id="PolyCollection_6">
    <defs>
     <path id="med58753521" d="M 333.25828 -75.685499 
L 333 -75.685499 
L 333 -77.381164 
L 333 -79.07683 
L 333 -80.772495 
L 333 -82.46816 
L 333 -84.163825 
L 333 -85.859491 
L 333 -87.555156 
L 333 -89.250821 
L 333 -90.946487 
L 333 -92.642152 
L 333 -94.337817 
L 333 -96.033483 
L 333 -97.729148 
L 333 -99.424813 
L 333 -101.120478 
L 333 -102.816144 
L 333 -104.511809 
L 333 -106.207474 
L 333 -107.90314 
L 333 -109.598805 
L 333 -111.29447 
L 333 -112.990136 
L 333 -114.685801 
L 333 -116.381466 
L 333 -118.077131 
L 333 -119.772797 
L 333 -121.468462 
L 333 -123.164127 
L 333 -124.859793 
L 333 -126.555458 
L 333 -128.251123 
L 333 -129.946789 
L 333 -131.642454 
L 333 -133.338119 
L 333 -135.033784 
L 333 -136.72945 
L 333 -138.425115 
L 333 -140.12078 
L 333 -141.816446 
L 333 -143.512111 
L 333 -145.207776 
L 333 -146.903442 
L 333 -148.599107 
L 333 -150.294772 
L 333 -151.990437 
L 333 -153.686103 
L 333 -155.381768 
L 333 -157.077433 
L 333 -158.773099 
L 333 -160.468764 
L 333 -162.164429 
L 333 -163.860095 
L 333 -165.55576 
L 333 -167.251425 
L 333 -168.94709 
L 333 -170.642756 
L 333 -172.338421 
L 333 -174.034086 
L 333 -175.729752 
L 333 -177.425417 
L 333 -179.121082 
L 333 -180.816748 
L 333 -182.512413 
L 333 -184.208078 
L 333 -185.903743 
L 333 -187.599409 
L 333 -189.295074 
L 333 -190.990739 
L 333 -192.686405 
L 333 -194.38207 
L 333 -196.077735 
L 333 -197.773401 
L 333 -199.469066 
L 333 -201.164731 
L 333 -202.860396 
L 333 -204.556062 
L 333 -206.251727 
L 333 -207.947392 
L 333 -209.643058 
L 333 -211.338723 
L 333 -213.034388 
L 333 -214.730054 
L 333 -216.425719 
L 333 -218.121384 
L 333 -219.817049 
L 333 -221.512715 
L 333 -223.20838 
L 333 -224.904045 
L 333 -226.599711 
L 333 -228.295376 
L 333 -229.991041 
L 333 -231.686707 
L 333 -233.382372 
L 333 -235.078037 
L 333 -236.773702 
L 333 -238.469368 
L 333 -240.165033 
L 333 -241.860698 
L 333 -243.556364 
L 333.131187 -243.556364 
L 333.131187 -243.556364 
L 333.17859 -241.860698 
L 333.238845 -240.165033 
L 333.313932 -238.469368 
L 333.405702 -236.773702 
L 333.515757 -235.078037 
L 333.64534 -233.382372 
L 333.795236 -231.686707 
L 333.965716 -229.991041 
L 334.1565 -228.295376 
L 334.366768 -226.599711 
L 334.595177 -224.904045 
L 334.839907 -223.20838 
L 335.098681 -221.512715 
L 335.368775 -219.817049 
L 335.646992 -218.121384 
L 335.929617 -216.425719 
L 336.212363 -214.730054 
L 336.490338 -213.034388 
L 336.758081 -211.338723 
L 337.009695 -209.643058 
L 337.239109 -207.947392 
L 337.440478 -206.251727 
L 337.608713 -204.556062 
L 337.740092 -202.860396 
L 337.832891 -201.164731 
L 337.887941 -199.469066 
L 337.909044 -197.773401 
L 337.903137 -196.077735 
L 337.880171 -194.38207 
L 337.85267 -192.686405 
L 337.834986 -190.990739 
L 337.842306 -189.295074 
L 337.889504 -187.599409 
L 337.989962 -185.903743 
L 338.15446 -184.208078 
L 338.390283 -182.512413 
L 338.70062 -180.816748 
L 339.084334 -179.121082 
L 339.536128 -177.425417 
L 340.047098 -175.729752 
L 340.605626 -174.034086 
L 341.198534 -172.338421 
L 341.812393 -170.642756 
L 342.434861 -168.94709 
L 343.055924 -167.251425 
L 343.668908 -165.55576 
L 344.271134 -163.860095 
L 344.864157 -162.164429 
L 345.453506 -160.468764 
L 346.047952 -158.773099 
L 346.658357 -157.077433 
L 347.296206 -155.381768 
L 347.971984 -153.686103 
L 348.693555 -151.990437 
L 349.464745 -150.294772 
L 350.284234 -148.599107 
L 351.144911 -146.903442 
L 352.033699 -145.207776 
L 352.931893 -143.512111 
L 353.815935 -141.816446 
L 354.658572 -140.12078 
L 355.430301 -138.425115 
L 356.101002 -136.72945 
L 356.64167 -135.033784 
L 357.026148 -133.338119 
L 357.232756 -131.642454 
L 357.245715 -129.946789 
L 357.056257 -128.251123 
L 356.663308 -126.555458 
L 356.073664 -124.859793 
L 355.301612 -123.164127 
L 354.367989 -121.468462 
L 353.298769 -119.772797 
L 352.123287 -118.077131 
L 350.872299 -116.381466 
L 349.576062 -114.685801 
L 348.262657 -112.990136 
L 346.956687 -111.29447 
L 345.678481 -109.598805 
L 344.443806 -107.90314 
L 343.264062 -106.207474 
L 342.146839 -104.511809 
L 341.096702 -102.816144 
L 340.116046 -101.120478 
L 339.205879 -99.424813 
L 338.366444 -97.729148 
L 337.597617 -96.033483 
L 336.899067 -94.337817 
L 336.270243 -92.642152 
L 335.710215 -90.946487 
L 335.217478 -89.250821 
L 334.789767 -87.555156 
L 334.423938 -85.859491 
L 334.115961 -84.163825 
L 333.861003 -82.46816 
L 333.653617 -80.772495 
L 333.487973 -79.07683 
L 333.358128 -77.381164 
L 333.25828 -75.685499 
z
" style="stroke: #3f3f3f; stroke-width: 1.5"/>
    </defs>
    <g clip-path="url(#p8f0ba6889b)">
     <use xlink:href="#med58753521" x="0" y="288" style="fill: #e1812c; stroke: #3f3f3f; stroke-width: 1.5"/>
    </g>
   </g>
   <g id="matplotlib.axis_1">
    <g id="xtick_1">
     <g id="line2d_1">
      <defs>
       <path id="mae34676355" d="M 0 0 
L 0 3.5 
" style="stroke: #000000; stroke-width: 0.8"/>
      </defs>
      <g>
       <use xlink:href="#mae34676355" x="109.8" y="252" style="stroke: #000000; stroke-width: 0.8"/>
      </g>
     </g>
     <g id="text_1">
      <!-- stat -->
      <g transform="translate(100.210938 266.598437)scale(0.1 -0.1)">
       <defs>
        <path id="DejaVuSans-73" d="M 2834 3397 
L 2834 2853 
Q 2591 2978 2328 3040 
Q 2066 3103 1784 3103 
Q 1356 3103 1142 2972 
Q 928 2841 928 2578 
Q 928 2378 1081 2264 
Q 1234 2150 1697 2047 
L 1894 2003 
Q 2506 1872 2764 1633 
Q 3022 1394 3022 966 
Q 3022 478 2636 193 
Q 2250 -91 1575 -91 
Q 1294 -91 989 -36 
Q 684 19 347 128 
L 347 722 
Q 666 556 975 473 
Q 1284 391 1588 391 
Q 1994 391 2212 530 
Q 2431 669 2431 922 
Q 2431 1156 2273 1281 
Q 2116 1406 1581 1522 
L 1381 1569 
Q 847 1681 609 1914 
Q 372 2147 372 2553 
Q 372 3047 722 3315 
Q 1072 3584 1716 3584 
Q 2034 3584 2315 3537 
Q 2597 3491 2834 3397 
z
" transform="scale(0.015625)"/>
        <path id="DejaVuSans-74" d="M 1172 4494 
L 1172 3500 
L 2356 3500 
L 2356 3053 
L 1172 3053 
L 1172 1153 
Q 1172 725 1289 603 
Q 1406 481 1766 481 
L 2356 481 
L 2356 0 
L 1766 0 
Q 1100 0 847 248 
Q 594 497 594 1153 
L 594 3053 
L 172 3053 
L 172 3500 
L 594 3500 
L 594 4494 
L 1172 4494 
z
" transform="scale(0.015625)"/>
        <path id="DejaVuSans-61" d="M 2194 1759 
Q 1497 1759 1228 1600 
Q 959 1441 959 1056 
Q 959 750 1161 570 
Q 1363 391 1709 391 
Q 2188 391 2477 730 
Q 2766 1069 2766 1631 
L 2766 1759 
L 2194 1759 
z
M 3341 1997 
L 3341 0 
L 2766 0 
L 2766 531 
Q 2569 213 2275 61 
Q 1981 -91 1556 -91 
Q 1019 -91 701 211 
Q 384 513 384 1019 
Q 384 1609 779 1909 
Q 1175 2209 1959 2209 
L 2766 2209 
L 2766 2266 
Q 2766 2663 2505 2880 
Q 2244 3097 1772 3097 
Q 1472 3097 1187 3025 
Q 903 2953 641 2809 
L 641 3341 
Q 956 3463 1253 3523 
Q 1550 3584 1831 3584 
Q 2591 3584 2966 3190 
Q 3341 2797 3341 1997 
z
" transform="scale(0.015625)"/>
       </defs>
       <use xlink:href="#DejaVuSans-73"/>
       <use xlink:href="#DejaVuSans-74" x="52.099609"/>
       <use xlink:href="#DejaVuSans-61" x="91.308594"/>
       <use xlink:href="#DejaVuSans-74" x="152.587891"/>
      </g>
     </g>
    </g>
    <g id="xtick_2">
     <g id="line2d_2">
      <g>
       <use xlink:href="#mae34676355" x="221.4" y="252" style="stroke: #000000; stroke-width: 0.8"/>
      </g>
     </g>
     <g id="text_2">
      <!-- math -->
      <g transform="translate(208.336719 266.598437)scale(0.1 -0.1)">
       <defs>
        <path id="DejaVuSans-6d" d="M 3328 2828 
Q 3544 3216 3844 3400 
Q 4144 3584 4550 3584 
Q 5097 3584 5394 3201 
Q 5691 2819 5691 2113 
L 5691 0 
L 5113 0 
L 5113 2094 
Q 5113 2597 4934 2840 
Q 4756 3084 4391 3084 
Q 3944 3084 3684 2787 
Q 3425 2491 3425 1978 
L 3425 0 
L 2847 0 
L 2847 2094 
Q 2847 2600 2669 2842 
Q 2491 3084 2119 3084 
Q 1678 3084 1418 2786 
Q 1159 2488 1159 1978 
L 1159 0 
L 581 0 
L 581 3500 
L 1159 3500 
L 1159 2956 
Q 1356 3278 1631 3431 
Q 1906 3584 2284 3584 
Q 2666 3584 2933 3390 
Q 3200 3197 3328 2828 
z
" transform="scale(0.015625)"/>
        <path id="DejaVuSans-68" d="M 3513 2113 
L 3513 0 
L 2938 0 
L 2938 2094 
Q 2938 2591 2744 2837 
Q 2550 3084 2163 3084 
Q 1697 3084 1428 2787 
Q 1159 2491 1159 1978 
L 1159 0 
L 581 0 
L 581 4863 
L 1159 4863 
L 1159 2956 
Q 1366 3272 1645 3428 
Q 1925 3584 2291 3584 
Q 2894 3584 3203 3211 
Q 3513 2838 3513 2113 
z
" transform="scale(0.015625)"/>
       </defs>
       <use xlink:href="#DejaVuSans-6d"/>
       <use xlink:href="#DejaVuSans-61" x="97.412109"/>
       <use xlink:href="#DejaVuSans-74" x="158.691406"/>
       <use xlink:href="#DejaVuSans-68" x="197.900391"/>
      </g>
     </g>
    </g>
    <g id="xtick_3">
     <g id="line2d_3">
      <g>
       <use xlink:href="#mae34676355" x="333" y="252" style="stroke: #000000; stroke-width: 0.8"/>
      </g>
     </g>
     <g id="text_3">
      <!-- comp -->
      <g transform="translate(319.146875 266.598437)scale(0.1 -0.1)">
       <defs>
        <path id="DejaVuSans-63" d="M 3122 3366 
L 3122 2828 
Q 2878 2963 2633 3030 
Q 2388 3097 2138 3097 
Q 1578 3097 1268 2742 
Q 959 2388 959 1747 
Q 959 1106 1268 751 
Q 1578 397 2138 397 
Q 2388 397 2633 464 
Q 2878 531 3122 666 
L 3122 134 
Q 2881 22 2623 -34 
Q 2366 -91 2075 -91 
Q 1284 -91 818 406 
Q 353 903 353 1747 
Q 353 2603 823 3093 
Q 1294 3584 2113 3584 
Q 2378 3584 2631 3529 
Q 2884 3475 3122 3366 
z
" transform="scale(0.015625)"/>
        <path id="DejaVuSans-6f" d="M 1959 3097 
Q 1497 3097 1228 2736 
Q 959 2375 959 1747 
Q 959 1119 1226 758 
Q 1494 397 1959 397 
Q 2419 397 2687 759 
Q 2956 1122 2956 1747 
Q 2956 2369 2687 2733 
Q 2419 3097 1959 3097 
z
M 1959 3584 
Q 2709 3584 3137 3096 
Q 3566 2609 3566 1747 
Q 3566 888 3137 398 
Q 2709 -91 1959 -91 
Q 1206 -91 779 398 
Q 353 888 353 1747 
Q 353 2609 779 3096 
Q 1206 3584 1959 3584 
z
" transform="scale(0.015625)"/>
        <path id="DejaVuSans-70" d="M 1159 525 
L 1159 -1331 
L 581 -1331 
L 581 3500 
L 1159 3500 
L 1159 2969 
Q 1341 3281 1617 3432 
Q 1894 3584 2278 3584 
Q 2916 3584 3314 3078 
Q 3713 2572 3713 1747 
Q 3713 922 3314 415 
Q 2916 -91 2278 -91 
Q 1894 -91 1617 61 
Q 1341 213 1159 525 
z
M 3116 1747 
Q 3116 2381 2855 2742 
Q 2594 3103 2138 3103 
Q 1681 3103 1420 2742 
Q 1159 2381 1159 1747 
Q 1159 1113 1420 752 
Q 1681 391 2138 391 
Q 2594 391 2855 752 
Q 3116 1113 3116 1747 
z
" transform="scale(0.015625)"/>
       </defs>
       <use xlink:href="#DejaVuSans-63"/>
       <use xlink:href="#DejaVuSans-6f" x="54.980469"/>
       <use xlink:href="#DejaVuSans-6d" x="116.162109"/>
       <use xlink:href="#DejaVuSans-70" x="213.574219"/>
      </g>
     </g>
    </g>
    <g id="text_4">
     <!-- Subject -->
     <g transform="translate(202.707813 280.276563)scale(0.1 -0.1)">
      <defs>
       <path id="DejaVuSans-53" d="M 3425 4513 
L 3425 3897 
Q 3066 4069 2747 4153 
Q 2428 4238 2131 4238 
Q 1616 4238 1336 4038 
Q 1056 3838 1056 3469 
Q 1056 3159 1242 3001 
Q 1428 2844 1947 2747 
L 2328 2669 
Q 3034 2534 3370 2195 
Q 3706 1856 3706 1288 
Q 3706 609 3251 259 
Q 2797 -91 1919 -91 
Q 1588 -91 1214 -16 
Q 841 59 441 206 
L 441 856 
Q 825 641 1194 531 
Q 1563 422 1919 422 
Q 2459 422 2753 634 
Q 3047 847 3047 1241 
Q 3047 1584 2836 1778 
Q 2625 1972 2144 2069 
L 1759 2144 
Q 1053 2284 737 2584 
Q 422 2884 422 3419 
Q 422 4038 858 4394 
Q 1294 4750 2059 4750 
Q 2388 4750 2728 4690 
Q 3069 4631 3425 4513 
z
" transform="scale(0.015625)"/>
       <path id="DejaVuSans-75" d="M 544 1381 
L 544 3500 
L 1119 3500 
L 1119 1403 
Q 1119 906 1312 657 
Q 1506 409 1894 409 
Q 2359 409 2629 706 
Q 2900 1003 2900 1516 
L 2900 3500 
L 3475 3500 
L 3475 0 
L 2900 0 
L 2900 538 
Q 2691 219 2414 64 
Q 2138 -91 1772 -91 
Q 1169 -91 856 284 
Q 544 659 544 1381 
z
M 1991 3584 
L 1991 3584 
z
" transform="scale(0.015625)"/>
       <path id="DejaVuSans-62" d="M 3116 1747 
Q 3116 2381 2855 2742 
Q 2594 3103 2138 3103 
Q 1681 3103 1420 2742 
Q 1159 2381 1159 1747 
Q 1159 1113 1420 752 
Q 1681 391 2138 391 
Q 2594 391 2855 752 
Q 3116 1113 3116 1747 
z
M 1159 2969 
Q 1341 3281 1617 3432 
Q 1894 3584 2278 3584 
Q 2916 3584 3314 3078 
Q 3713 2572 3713 1747 
Q 3713 922 3314 415 
Q 2916 -91 2278 -91 
Q 1894 -91 1617 61 
Q 1341 213 1159 525 
L 1159 0 
L 581 0 
L 581 4863 
L 1159 4863 
L 1159 2969 
z
" transform="scale(0.015625)"/>
       <path id="DejaVuSans-6a" d="M 603 3500 
L 1178 3500 
L 1178 -63 
Q 1178 -731 923 -1031 
Q 669 -1331 103 -1331 
L -116 -1331 
L -116 -844 
L 38 -844 
Q 366 -844 484 -692 
Q 603 -541 603 -63 
L 603 3500 
z
M 603 4863 
L 1178 4863 
L 1178 4134 
L 603 4134 
L 603 4863 
z
" transform="scale(0.015625)"/>
       <path id="DejaVuSans-65" d="M 3597 1894 
L 3597 1613 
L 953 1613 
Q 991 1019 1311 708 
Q 1631 397 2203 397 
Q 2534 397 2845 478 
Q 3156 559 3463 722 
L 3463 178 
Q 3153 47 2828 -22 
Q 2503 -91 2169 -91 
Q 1331 -91 842 396 
Q 353 884 353 1716 
Q 353 2575 817 3079 
Q 1281 3584 2069 3584 
Q 2775 3584 3186 3129 
Q 3597 2675 3597 1894 
z
M 3022 2063 
Q 3016 2534 2758 2815 
Q 2500 3097 2075 3097 
Q 1594 3097 1305 2825 
Q 1016 2553 972 2059 
L 3022 2063 
z
" transform="scale(0.015625)"/>
      </defs>
      <use xlink:href="#DejaVuSans-53"/>
      <use xlink:href="#DejaVuSans-75" x="63.476562"/>
      <use xlink:href="#DejaVuSans-62" x="126.855469"/>
      <use xlink:href="#DejaVuSans-6a" x="190.332031"/>
      <use xlink:href="#DejaVuSans-65" x="218.115234"/>
      <use xlink:href="#DejaVuSans-63" x="279.638672"/>
      <use xlink:href="#DejaVuSans-74" x="334.619141"/>
     </g>
    </g>
   </g>
   <g id="matplotlib.axis_2">
    <g id="ytick_1">
     <g id="line2d_4">
      <defs>
       <path id="m1dc5374997" d="M 0 0 
L -3.5 0 
" style="stroke: #000000; stroke-width: 0.8"/>
      </defs>
      <g>
       <use xlink:href="#m1dc5374997" x="54" y="227.280916" style="stroke: #000000; stroke-width: 0.8"/>
      </g>
     </g>
     <g id="text_5">
      <!-- 0 -->
      <g transform="translate(40.6375 231.080135)scale(0.1 -0.1)">
       <defs>
        <path id="DejaVuSans-30" d="M 2034 4250 
Q 1547 4250 1301 3770 
Q 1056 3291 1056 2328 
Q 1056 1369 1301 889 
Q 1547 409 2034 409 
Q 2525 409 2770 889 
Q 3016 1369 3016 2328 
Q 3016 3291 2770 3770 
Q 2525 4250 2034 4250 
z
M 2034 4750 
Q 2819 4750 3233 4129 
Q 3647 3509 3647 2328 
Q 3647 1150 3233 529 
Q 2819 -91 2034 -91 
Q 1250 -91 836 529 
Q 422 1150 422 2328 
Q 422 3509 836 4129 
Q 1250 4750 2034 4750 
z
" transform="scale(0.015625)"/>
       </defs>
       <use xlink:href="#DejaVuSans-30"/>
      </g>
     </g>
    </g>
    <g id="ytick_2">
     <g id="line2d_5">
      <g>
       <use xlink:href="#m1dc5374997" x="54" y="194.917746" style="stroke: #000000; stroke-width: 0.8"/>
      </g>
     </g>
     <g id="text_6">
      <!-- 20 -->
      <g transform="translate(34.275 198.716965)scale(0.1 -0.1)">
       <defs>
        <path id="DejaVuSans-32" d="M 1228 531 
L 3431 531 
L 3431 0 
L 469 0 
L 469 531 
Q 828 903 1448 1529 
Q 2069 2156 2228 2338 
Q 2531 2678 2651 2914 
Q 2772 3150 2772 3378 
Q 2772 3750 2511 3984 
Q 2250 4219 1831 4219 
Q 1534 4219 1204 4116 
Q 875 4013 500 3803 
L 500 4441 
Q 881 4594 1212 4672 
Q 1544 4750 1819 4750 
Q 2544 4750 2975 4387 
Q 3406 4025 3406 3419 
Q 3406 3131 3298 2873 
Q 3191 2616 2906 2266 
Q 2828 2175 2409 1742 
Q 1991 1309 1228 531 
z
" transform="scale(0.015625)"/>
       </defs>
       <use xlink:href="#DejaVuSans-32"/>
       <use xlink:href="#DejaVuSans-30" x="63.623047"/>
      </g>
     </g>
    </g>
    <g id="ytick_3">
     <g id="line2d_6">
      <g>
       <use xlink:href="#m1dc5374997" x="54" y="162.554576" style="stroke: #000000; stroke-width: 0.8"/>
      </g>
     </g>
     <g id="text_7">
      <!-- 40 -->
      <g transform="translate(34.275 166.353795)scale(0.1 -0.1)">
       <defs>
        <path id="DejaVuSans-34" d="M 2419 4116 
L 825 1625 
L 2419 1625 
L 2419 4116 
z
M 2253 4666 
L 3047 4666 
L 3047 1625 
L 3713 1625 
L 3713 1100 
L 3047 1100 
L 3047 0 
L 2419 0 
L 2419 1100 
L 313 1100 
L 313 1709 
L 2253 4666 
z
" transform="scale(0.015625)"/>
       </defs>
       <use xlink:href="#DejaVuSans-34"/>
       <use xlink:href="#DejaVuSans-30" x="63.623047"/>
      </g>
     </g>
    </g>
    <g id="ytick_4">
     <g id="line2d_7">
      <g>
       <use xlink:href="#m1dc5374997" x="54" y="130.191406" style="stroke: #000000; stroke-width: 0.8"/>
      </g>
     </g>
     <g id="text_8">
      <!-- 60 -->
      <g transform="translate(34.275 133.990625)scale(0.1 -0.1)">
       <defs>
        <path id="DejaVuSans-36" d="M 2113 2584 
Q 1688 2584 1439 2293 
Q 1191 2003 1191 1497 
Q 1191 994 1439 701 
Q 1688 409 2113 409 
Q 2538 409 2786 701 
Q 3034 994 3034 1497 
Q 3034 2003 2786 2293 
Q 2538 2584 2113 2584 
z
M 3366 4563 
L 3366 3988 
Q 3128 4100 2886 4159 
Q 2644 4219 2406 4219 
Q 1781 4219 1451 3797 
Q 1122 3375 1075 2522 
Q 1259 2794 1537 2939 
Q 1816 3084 2150 3084 
Q 2853 3084 3261 2657 
Q 3669 2231 3669 1497 
Q 3669 778 3244 343 
Q 2819 -91 2113 -91 
Q 1303 -91 875 529 
Q 447 1150 447 2328 
Q 447 3434 972 4092 
Q 1497 4750 2381 4750 
Q 2619 4750 2861 4703 
Q 3103 4656 3366 4563 
z
" transform="scale(0.015625)"/>
       </defs>
       <use xlink:href="#DejaVuSans-36"/>
       <use xlink:href="#DejaVuSans-30" x="63.623047"/>
      </g>
     </g>
    </g>
    <g id="ytick_5">
     <g id="line2d_8">
      <g>
       <use xlink:href="#m1dc5374997" x="54" y="97.828236" style="stroke: #000000; stroke-width: 0.8"/>
      </g>
     </g>
     <g id="text_9">
      <!-- 80 -->
      <g transform="translate(34.275 101.627455)scale(0.1 -0.1)">
       <defs>
        <path id="DejaVuSans-38" d="M 2034 2216 
Q 1584 2216 1326 1975 
Q 1069 1734 1069 1313 
Q 1069 891 1326 650 
Q 1584 409 2034 409 
Q 2484 409 2743 651 
Q 3003 894 3003 1313 
Q 3003 1734 2745 1975 
Q 2488 2216 2034 2216 
z
M 1403 2484 
Q 997 2584 770 2862 
Q 544 3141 544 3541 
Q 544 4100 942 4425 
Q 1341 4750 2034 4750 
Q 2731 4750 3128 4425 
Q 3525 4100 3525 3541 
Q 3525 3141 3298 2862 
Q 3072 2584 2669 2484 
Q 3125 2378 3379 2068 
Q 3634 1759 3634 1313 
Q 3634 634 3220 271 
Q 2806 -91 2034 -91 
Q 1263 -91 848 271 
Q 434 634 434 1313 
Q 434 1759 690 2068 
Q 947 2378 1403 2484 
z
M 1172 3481 
Q 1172 3119 1398 2916 
Q 1625 2713 2034 2713 
Q 2441 2713 2670 2916 
Q 2900 3119 2900 3481 
Q 2900 3844 2670 4047 
Q 2441 4250 2034 4250 
Q 1625 4250 1398 4047 
Q 1172 3844 1172 3481 
z
" transform="scale(0.015625)"/>
       </defs>
       <use xlink:href="#DejaVuSans-38"/>
       <use xlink:href="#DejaVuSans-30" x="63.623047"/>
      </g>
     </g>
    </g>
    <g id="ytick_6">
     <g id="line2d_9">
      <g>
       <use xlink:href="#m1dc5374997" x="54" y="65.465066" style="stroke: #000000; stroke-width: 0.8"/>
      </g>
     </g>
     <g id="text_10">
      <!-- 100 -->
      <g transform="translate(27.9125 69.264285)scale(0.1 -0.1)">
       <defs>
        <path id="DejaVuSans-31" d="M 794 531 
L 1825 531 
L 1825 4091 
L 703 3866 
L 703 4441 
L 1819 4666 
L 2450 4666 
L 2450 531 
L 3481 531 
L 3481 0 
L 794 0 
L 794 531 
z
" transform="scale(0.015625)"/>
       </defs>
       <use xlink:href="#DejaVuSans-31"/>
       <use xlink:href="#DejaVuSans-30" x="63.623047"/>
       <use xlink:href="#DejaVuSans-30" x="127.246094"/>
      </g>
     </g>
    </g>
    <g id="text_11">
     <!-- Score -->
     <g transform="translate(21.832812 157.282344)rotate(-90)scale(0.1 -0.1)">
      <defs>
       <path id="DejaVuSans-72" d="M 2631 2963 
Q 2534 3019 2420 3045 
Q 2306 3072 2169 3072 
Q 1681 3072 1420 2755 
Q 1159 2438 1159 1844 
L 1159 0 
L 581 0 
L 581 3500 
L 1159 3500 
L 1159 2956 
Q 1341 3275 1631 3429 
Q 1922 3584 2338 3584 
Q 2397 3584 2469 3576 
Q 2541 3569 2628 3553 
L 2631 2963 
z
" transform="scale(0.015625)"/>
      </defs>
      <use xlink:href="#DejaVuSans-53"/>
      <use xlink:href="#DejaVuSans-63" x="63.476562"/>
      <use xlink:href="#DejaVuSans-6f" x="118.457031"/>
      <use xlink:href="#DejaVuSans-72" x="179.638672"/>
      <use xlink:href="#DejaVuSans-65" x="218.501953"/>
     </g>
    </g>
   </g>
   <g id="line2d_10">
    <path d="M 69.741546 167.259372 
L 109.8 167.259372 
" clip-path="url(#p8f0ba6889b)" style="fill: none; stroke-dasharray: 3.375,3.375; stroke-dashoffset: 0; stroke: #3f3f3f; stroke-width: 1.5"/>
   </g>
   <g id="line2d_11">
    <path d="M 66.71091 153.436253 
L 109.8 153.436253 
" clip-path="url(#p8f0ba6889b)" style="fill: none; stroke-dasharray: 6.75,6.75; stroke-dashoffset: 0; stroke: #3f3f3f; stroke-width: 1.5"/>
   </g>
   <g id="line2d_12">
    <path d="M 76.902843 133.104092 
L 109.8 133.104092 
" clip-path="url(#p8f0ba6889b)" style="fill: none; stroke-dasharray: 3.375,3.375; stroke-dashoffset: 0; stroke: #3f3f3f; stroke-width: 1.5"/>
   </g>
   <g id="line2d_13">
    <path d="M 109.8 160.895964 
L 144.733665 160.895964 
" clip-path="url(#p8f0ba6889b)" style="fill: none; stroke-dasharray: 3.375,3.375; stroke-dashoffset: 0; stroke: #3f3f3f; stroke-width: 1.5"/>
   </g>
   <g id="line2d_14">
    <path d="M 109.8 144.884285 
L 151.518055 144.884285 
" clip-path="url(#p8f0ba6889b)" style="fill: none; stroke-dasharray: 6.75,6.75; stroke-dashoffset: 0; stroke: #3f3f3f; stroke-width: 1.5"/>
   </g>
   <g id="line2d_15">
    <path d="M 109.8 125.919468 
L 143.037213 125.919468 
" clip-path="url(#p8f0ba6889b)" style="fill: none; stroke-dasharray: 3.375,3.375; stroke-dashoffset: 0; stroke: #3f3f3f; stroke-width: 1.5"/>
   </g>
   <g id="line2d_16">
    <path d="M 194.267222 184.512987 
L 221.4 184.512987 
" clip-path="url(#p8f0ba6889b)" style="fill: none; stroke-dasharray: 3.375,3.375; stroke-dashoffset: 0; stroke: #3f3f3f; stroke-width: 1.5"/>
   </g>
   <g id="line2d_17">
    <path d="M 187.772824 173.234422 
L 221.4 173.234422 
" clip-path="url(#p8f0ba6889b)" style="fill: none; stroke-dasharray: 6.75,6.75; stroke-dashoffset: 0; stroke: #3f3f3f; stroke-width: 1.5"/>
   </g>
   <g id="line2d_18">
    <path d="M 194.3117 163.529517 
L 221.4 163.529517 
" clip-path="url(#p8f0ba6889b)" style="fill: none; stroke-dasharray: 3.375,3.375; stroke-dashoffset: 0; stroke: #3f3f3f; stroke-width: 1.5"/>
   </g>
   <g id="line2d_19">
    <path d="M 221.4 122.375701 
L 253.8264 122.375701 
" clip-path="url(#p8f0ba6889b)" style="fill: none; stroke-dasharray: 3.375,3.375; stroke-dashoffset: 0; stroke: #3f3f3f; stroke-width: 1.5"/>
   </g>
   <g id="line2d_20">
    <path d="M 221.4 113.119834 
L 265.366827 113.119834 
" clip-path="url(#p8f0ba6889b)" style="fill: none; stroke-dasharray: 6.75,6.75; stroke-dashoffset: 0; stroke: #3f3f3f; stroke-width: 1.5"/>
   </g>
   <g id="line2d_21">
    <path d="M 221.4 105.283902 
L 259.169467 105.283902 
" clip-path="url(#p8f0ba6889b)" style="fill: none; stroke-dasharray: 3.375,3.375; stroke-dashoffset: 0; stroke: #3f3f3f; stroke-width: 1.5"/>
   </g>
   <g id="line2d_22">
    <path d="M 296.589186 168.796623 
L 333 168.796623 
" clip-path="url(#p8f0ba6889b)" style="fill: none; stroke-dasharray: 3.375,3.375; stroke-dashoffset: 0; stroke: #3f3f3f; stroke-width: 1.5"/>
   </g>
   <g id="line2d_23">
    <path d="M 288.8064 161.446138 
L 333 161.446138 
" clip-path="url(#p8f0ba6889b)" style="fill: none; stroke-dasharray: 6.75,6.75; stroke-dashoffset: 0; stroke: #3f3f3f; stroke-width: 1.5"/>
   </g>
   <g id="line2d_24">
    <path d="M 300.206386 153.589978 
L 333 153.589978 
" clip-path="url(#p8f0ba6889b)" style="fill: none; stroke-dasharray: 3.375,3.375; stroke-dashoffset: 0; stroke: #3f3f3f; stroke-width: 1.5"/>
   </g>
   <g id="line2d_25">
    <path d="M 333 162.918662 
L 355.842927 162.918662 
" clip-path="url(#p8f0ba6889b)" style="fill: none; stroke-dasharray: 3.375,3.375; stroke-dashoffset: 0; stroke: #3f3f3f; stroke-width: 1.5"/>
   </g>
   <g id="line2d_26">
    <path d="M 333 151.316465 
L 355.869992 151.316465 
" clip-path="url(#p8f0ba6889b)" style="fill: none; stroke-dasharray: 6.75,6.75; stroke-dashoffset: 0; stroke: #3f3f3f; stroke-width: 1.5"/>
   </g>
   <g id="line2d_27">
    <path d="M 333 128.051392 
L 345.328971 128.051392 
" clip-path="url(#p8f0ba6889b)" style="fill: none; stroke-dasharray: 3.375,3.375; stroke-dashoffset: 0; stroke: #3f3f3f; stroke-width: 1.5"/>
   </g>
   <g id="patch_5">
    <path d="M 54 252 
L 54 34.56 
" style="fill: none; stroke: #000000; stroke-width: 0.8; stroke-linejoin: miter; stroke-linecap: square"/>
   </g>
   <g id="patch_6">
    <path d="M 388.8 252 
L 388.8 34.56 
" style="fill: none; stroke: #000000; stroke-width: 0.8; stroke-linejoin: miter; stroke-linecap: square"/>
   </g>
   <g id="patch_7">
    <path d="M 54 252 
L 388.8 252 
" style="fill: none; stroke: #000000; stroke-width: 0.8; stroke-linejoin: miter; stroke-linecap: square"/>
   </g>
   <g id="patch_8">
    <path d="M 54 34.56 
L 388.8 34.56 
" style="fill: none; stroke: #000000; stroke-width: 0.8; stroke-linejoin: miter; stroke-linecap: square"/>
   </g>
   <g id="legend_1">
    <g id="patch_9">
     <path d="M 343.4375 86.594375 
L 381.8 86.594375 
Q 383.8 86.594375 383.8 84.594375 
L 383.8 41.56 
Q 383.8 39.56 381.8 39.56 
L 343.4375 39.56 
Q 341.4375 39.56 341.4375 41.56 
L 341.4375 84.594375 
Q 341.4375 86.594375 343.4375 86.594375 
z
" style="fill: #ffffff; opacity: 0.8; stroke: #cccccc; stroke-linejoin: miter"/>
    </g>
    <g id="text_12">
     <!-- sec -->
     <g transform="translate(354.188281 51.158438)scale(0.1 -0.1)">
      <use xlink:href="#DejaVuSans-73"/>
      <use xlink:href="#DejaVuSans-65" x="52.099609"/>
      <use xlink:href="#DejaVuSans-63" x="113.623047"/>
     </g>
    </g>
    <g id="patch_10">
     <path d="M 345.4375 65.836563 
L 365.4375 65.836563 
L 365.4375 58.836563 
L 345.4375 58.836563 
z
" style="fill: #3274a1; stroke: #3f3f3f; stroke-width: 0.75; stroke-linejoin: miter"/>
    </g>
    <g id="text_13">
     <!-- 1 -->
     <g transform="translate(373.4375 65.836563)scale(0.1 -0.1)">
      <use xlink:href="#DejaVuSans-31"/>
     </g>
    </g>
    <g id="patch_11">
     <path d="M 345.4375 80.514688 
L 365.4375 80.514688 
L 365.4375 73.514688 
L 345.4375 73.514688 
z
" style="fill: #e1812c; stroke: #3f3f3f; stroke-width: 0.75; stroke-linejoin: miter"/>
    </g>
    <g id="text_14">
     <!-- 2 -->
     <g transform="translate(373.4375 80.514688)scale(0.1 -0.1)">
      <use xlink:href="#DejaVuSans-32"/>
     </g>
    </g>
   </g>
  </g>
 </g>
 <defs>
  <clipPath id="p8f0ba6889b">
   <rect x="54" y="34.56" width="334.8" height="217.44"/>
  </clipPath>
 </defs>
</svg>
