<?xml version="1.0" encoding="utf-8" standalone="no"?>
<!DOCTYPE svg PUBLIC "-//W3C//DTD SVG 1.1//EN"
  "http://www.w3.org/Graphics/SVG/1.1/DTD/svg11.dtd">
<svg xmlns:xlink="http://www.w3.org/1999/xlink" width="432pt" height="288pt" viewBox="0 0 432 288" xmlns="http://www.w3.org/2000/svg" version="1.1">
 <metadata>
  <rdf:RDF xmlns:dc="http://purl.org/dc/elements/1.1/" xmlns:cc="http://creativecommons.org/ns#" xmlns:rdf="http://www.w3.org/1999/02/22-rdf-syntax-ns#">
   <cc:Work>
    <dc:type rdf:resource="http://purl.org/dc/dcmitype/StillImage"/>
    <dc:date>2022-02-25T01:37:38.681945</dc:date>
    <dc:format>image/svg+xml</dc:format>
    <dc:creator>
     <cc:Agent>
      <dc:title>Matplotlib v3.5.1, https://matplotlib.org/</dc:title>
     </cc:Agent>
    </dc:creator>
   </cc:Work>
  </rdf:RDF>
 </metadata>
 <defs>
  <style type="text/css">*{stroke-linejoin: round; stroke-linecap: butt}</style>
 </defs>
 <g id="figure_1">
  <g id="patch_1">
   <path d="M 0 288 
L 432 288 
L 432 0 
L 0 0 
L 0 288 
z
" style="fill: none"/>
  </g>
  <g id="axes_1">
   <g id="patch_2">
    <path d="M 54 252 
L 388.8 252 
L 388.8 34.56 
L 54 34.56 
z
" style="fill: #ffffff"/>
   </g>
   <g id="patch_3">
    <path d="M 137.7 243.177667 
L 137.7 243.177667 
L 137.7 243.177667 
L 137.7 243.177667 
z
" clip-path="url(#p47421f968d)" style="fill: #3274a1; stroke: #3f3f3f; stroke-width: 0.75; stroke-linejoin: miter"/>
   </g>
   <g id="PolyCollection_1">
    <defs>
     <path id="m7121e9a447" d="M 137.7 -45.883636 
L 136.062318 -45.883636 
L 135.713344 -47.880331 
L 135.31107 -49.877025 
L 134.852142 -51.873719 
L 134.333938 -53.870413 
L 133.754718 -55.867107 
L 133.113735 -57.863802 
L 132.411284 -59.860496 
L 131.648701 -61.85719 
L 130.828276 -63.853884 
L 129.953089 -65.850579 
L 129.026769 -67.847273 
L 128.053176 -69.843967 
L 127.036041 -71.840661 
L 125.978553 -73.837355 
L 124.882967 -75.83405 
L 123.750219 -77.830744 
L 122.579625 -79.827438 
L 121.368666 -81.824132 
L 120.112911 -83.820826 
L 118.806093 -85.817521 
L 117.44035 -87.814215 
L 116.006633 -89.810909 
L 114.495277 -91.807603 
L 112.896695 -93.804298 
L 111.202176 -95.800992 
L 109.404716 -97.797686 
L 107.499855 -99.79438 
L 105.486442 -101.791074 
L 103.36728 -103.787769 
L 101.1496 -105.784463 
L 98.845325 -107.781157 
L 96.471095 -109.777851 
L 94.048039 -111.774545 
L 91.601305 -113.77124 
L 89.159358 -115.767934 
L 86.753099 -117.764628 
L 84.414828 -119.761322 
L 82.177138 -121.758017 
L 80.071776 -123.754711 
L 78.128553 -125.751405 
L 76.374352 -127.748099 
L 74.832292 -129.744793 
L 73.521082 -131.741488 
L 72.4546 -133.738182 
L 71.641703 -135.734876 
L 71.086263 -137.73157 
L 70.78742 -139.728264 
L 70.74 -141.724959 
L 70.935086 -143.721653 
L 71.360662 -145.718347 
L 72.002309 -147.715041 
L 72.843885 -149.711736 
L 73.868155 -151.70843 
L 75.057343 -153.705124 
L 76.393573 -155.701818 
L 77.859207 -157.698512 
L 79.437061 -159.695207 
L 81.110533 -161.691901 
L 82.863658 -163.688595 
L 84.68111 -165.685289 
L 86.548196 -167.681983 
L 88.450844 -169.678678 
L 90.375641 -171.675372 
L 92.309888 -173.672066 
L 94.241726 -175.66876 
L 96.16028 -177.665455 
L 98.055847 -179.662149 
L 99.920079 -181.658843 
L 101.746149 -183.655537 
L 103.528875 -185.652231 
L 105.264778 -187.648926 
L 106.952058 -189.64562 
L 108.590479 -191.642314 
L 110.181161 -193.639008 
L 111.726302 -195.635702 
L 113.228824 -197.632397 
L 114.691992 -199.629091 
L 116.119023 -201.625785 
L 117.512715 -203.622479 
L 118.875127 -205.619174 
L 120.207337 -207.615868 
L 121.509286 -209.612562 
L 122.779729 -211.609256 
L 124.016278 -213.60595 
L 125.21555 -215.602645 
L 126.37338 -217.599339 
L 127.485099 -219.596033 
L 128.545841 -221.592727 
L 129.550857 -223.589421 
L 130.495816 -225.586116 
L 131.377067 -227.58281 
L 132.191847 -229.579504 
L 132.938426 -231.576198 
L 133.616192 -233.572893 
L 134.225653 -235.569587 
L 134.768398 -237.566281 
L 135.246987 -239.562975 
L 135.664817 -241.559669 
L 136.025952 -243.556364 
L 137.7 -243.556364 
L 137.7 -243.556364 
L 137.7 -241.559669 
L 137.7 -239.562975 
L 137.7 -237.566281 
L 137.7 -235.569587 
L 137.7 -233.572893 
L 137.7 -231.576198 
L 137.7 -229.579504 
L 137.7 -227.58281 
L 137.7 -225.586116 
L 137.7 -223.589421 
L 137.7 -221.592727 
L 137.7 -219.596033 
L 137.7 -217.599339 
L 137.7 -215.602645 
L 137.7 -213.60595 
L 137.7 -211.609256 
L 137.7 -209.612562 
L 137.7 -207.615868 
L 137.7 -205.619174 
L 137.7 -203.622479 
L 137.7 -201.625785 
L 137.7 -199.629091 
L 137.7 -197.632397 
L 137.7 -195.635702 
L 137.7 -193.639008 
L 137.7 -191.642314 
L 137.7 -189.64562 
L 137.7 -187.648926 
L 137.7 -185.652231 
L 137.7 -183.655537 
L 137.7 -181.658843 
L 137.7 -179.662149 
L 137.7 -177.665455 
L 137.7 -175.66876 
L 137.7 -173.672066 
L 137.7 -171.675372 
L 137.7 -169.678678 
L 137.7 -167.681983 
L 137.7 -165.685289 
L 137.7 -163.688595 
L 137.7 -161.691901 
L 137.7 -159.695207 
L 137.7 -157.698512 
L 137.7 -155.701818 
L 137.7 -153.705124 
L 137.7 -151.70843 
L 137.7 -149.711736 
L 137.7 -147.715041 
L 137.7 -145.718347 
L 137.7 -143.721653 
L 137.7 -141.724959 
L 137.7 -139.728264 
L 137.7 -137.73157 
L 137.7 -135.734876 
L 137.7 -133.738182 
L 137.7 -131.741488 
L 137.7 -129.744793 
L 137.7 -127.748099 
L 137.7 -125.751405 
L 137.7 -123.754711 
L 137.7 -121.758017 
L 137.7 -119.761322 
L 137.7 -117.764628 
L 137.7 -115.767934 
L 137.7 -113.77124 
L 137.7 -111.774545 
L 137.7 -109.777851 
L 137.7 -107.781157 
L 137.7 -105.784463 
L 137.7 -103.787769 
L 137.7 -101.791074 
L 137.7 -99.79438 
L 137.7 -97.797686 
L 137.7 -95.800992 
L 137.7 -93.804298 
L 137.7 -91.807603 
L 137.7 -89.810909 
L 137.7 -87.814215 
L 137.7 -85.817521 
L 137.7 -83.820826 
L 137.7 -81.824132 
L 137.7 -79.827438 
L 137.7 -77.830744 
L 137.7 -75.83405 
L 137.7 -73.837355 
L 137.7 -71.840661 
L 137.7 -69.843967 
L 137.7 -67.847273 
L 137.7 -65.850579 
L 137.7 -63.853884 
L 137.7 -61.85719 
L 137.7 -59.860496 
L 137.7 -57.863802 
L 137.7 -55.867107 
L 137.7 -53.870413 
L 137.7 -51.873719 
L 137.7 -49.877025 
L 137.7 -47.880331 
L 137.7 -45.883636 
z
" style="stroke: #3f3f3f; stroke-width: 1.5"/>
    </defs>
    <g clip-path="url(#p47421f968d)">
     <use xlink:href="#m7121e9a447" x="0" y="288" style="fill: #3274a1; stroke: #3f3f3f; stroke-width: 1.5"/>
    </g>
   </g>
   <g id="patch_4">
    <path d="M 137.7 243.177667 
L 137.7 243.177667 
L 137.7 243.177667 
L 137.7 243.177667 
z
" clip-path="url(#p47421f968d)" style="fill: #e1812c; stroke: #3f3f3f; stroke-width: 0.75; stroke-linejoin: miter"/>
   </g>
   <g id="PolyCollection_2">
    <defs>
     <path id="m5154f0ae57" d="M 141.347981 -50.569187 
L 137.7 -50.569187 
L 137.7 -52.385951 
L 137.7 -54.202714 
L 137.7 -56.019477 
L 137.7 -57.836241 
L 137.7 -59.653004 
L 137.7 -61.469767 
L 137.7 -63.286531 
L 137.7 -65.103294 
L 137.7 -66.920057 
L 137.7 -68.73682 
L 137.7 -70.553584 
L 137.7 -72.370347 
L 137.7 -74.18711 
L 137.7 -76.003874 
L 137.7 -77.820637 
L 137.7 -79.6374 
L 137.7 -81.454164 
L 137.7 -83.270927 
L 137.7 -85.08769 
L 137.7 -86.904454 
L 137.7 -88.721217 
L 137.7 -90.53798 
L 137.7 -92.354744 
L 137.7 -94.171507 
L 137.7 -95.98827 
L 137.7 -97.805034 
L 137.7 -99.621797 
L 137.7 -101.43856 
L 137.7 -103.255324 
L 137.7 -105.072087 
L 137.7 -106.88885 
L 137.7 -108.705614 
L 137.7 -110.522377 
L 137.7 -112.33914 
L 137.7 -114.155904 
L 137.7 -115.972667 
L 137.7 -117.78943 
L 137.7 -119.606194 
L 137.7 -121.422957 
L 137.7 -123.23972 
L 137.7 -125.056484 
L 137.7 -126.873247 
L 137.7 -128.69001 
L 137.7 -130.506774 
L 137.7 -132.323537 
L 137.7 -134.1403 
L 137.7 -135.957064 
L 137.7 -137.773827 
L 137.7 -139.59059 
L 137.7 -141.407353 
L 137.7 -143.224117 
L 137.7 -145.04088 
L 137.7 -146.857643 
L 137.7 -148.674407 
L 137.7 -150.49117 
L 137.7 -152.307933 
L 137.7 -154.124697 
L 137.7 -155.94146 
L 137.7 -157.758223 
L 137.7 -159.574987 
L 137.7 -161.39175 
L 137.7 -163.208513 
L 137.7 -165.025277 
L 137.7 -166.84204 
L 137.7 -168.658803 
L 137.7 -170.475567 
L 137.7 -172.29233 
L 137.7 -174.109093 
L 137.7 -175.925857 
L 137.7 -177.74262 
L 137.7 -179.559383 
L 137.7 -181.376147 
L 137.7 -183.19291 
L 137.7 -185.009673 
L 137.7 -186.826437 
L 137.7 -188.6432 
L 137.7 -190.459963 
L 137.7 -192.276727 
L 137.7 -194.09349 
L 137.7 -195.910253 
L 137.7 -197.727017 
L 137.7 -199.54378 
L 137.7 -201.360543 
L 137.7 -203.177307 
L 137.7 -204.99407 
L 137.7 -206.810833 
L 137.7 -208.627597 
L 137.7 -210.44436 
L 137.7 -212.261123 
L 137.7 -214.077886 
L 137.7 -215.89465 
L 137.7 -217.711413 
L 137.7 -219.528176 
L 137.7 -221.34494 
L 137.7 -223.161703 
L 137.7 -224.978466 
L 137.7 -226.79523 
L 137.7 -228.611993 
L 137.7 -230.428756 
L 139.796478 -230.428756 
L 139.796478 -230.428756 
L 140.307227 -228.611993 
L 140.913292 -226.79523 
L 141.62483 -224.978466 
L 142.451245 -223.161703 
L 143.400685 -221.34494 
L 144.479492 -219.528176 
L 145.691637 -217.711413 
L 147.038162 -215.89465 
L 148.516663 -214.077886 
L 150.120847 -212.261123 
L 151.840207 -210.44436 
L 153.659846 -208.627597 
L 155.560473 -206.810833 
L 157.518605 -204.99407 
L 159.506991 -203.177307 
L 161.49524 -201.360543 
L 163.450676 -199.54378 
L 165.339361 -197.727017 
L 167.127273 -195.910253 
L 168.781577 -194.09349 
L 170.271937 -192.276727 
L 171.571795 -190.459963 
L 172.659549 -188.6432 
L 173.519572 -186.826437 
L 174.143001 -185.009673 
L 174.528243 -183.19291 
L 174.681172 -181.376147 
L 174.614988 -179.559383 
L 174.349746 -177.74262 
L 173.911563 -175.925857 
L 173.331563 -174.109093 
L 172.644592 -172.29233 
L 171.887796 -170.475567 
L 171.09913 -168.658803 
L 170.315883 -166.84204 
L 169.573305 -165.025277 
L 168.903412 -163.208513 
L 168.334024 -161.39175 
L 167.888091 -159.574987 
L 167.583324 -157.758223 
L 167.43214 -155.94146 
L 167.441895 -154.124697 
L 167.615377 -152.307933 
L 167.951491 -150.49117 
L 168.446076 -148.674407 
L 169.092779 -146.857643 
L 169.883903 -145.04088 
L 170.811169 -143.224117 
L 171.866318 -141.407353 
L 173.041525 -139.59059 
L 174.329582 -137.773827 
L 175.723853 -135.957064 
L 177.218012 -134.1403 
L 178.805588 -132.323537 
L 180.479375 -130.506774 
L 182.230759 -128.69001 
L 184.049021 -126.873247 
L 185.920689 -125.056484 
L 187.828996 -123.23972 
L 189.753508 -121.422957 
L 191.669947 -119.606194 
L 193.550254 -117.78943 
L 195.362906 -115.972667 
L 197.073474 -114.155904 
L 198.645417 -112.33914 
L 200.041079 -110.522377 
L 201.222849 -108.705614 
L 202.154425 -106.88885 
L 202.802141 -105.072087 
L 203.136277 -103.255324 
L 203.132297 -101.43856 
L 202.77196 -99.621797 
L 202.044231 -97.805034 
L 200.945959 -95.98827 
L 199.482268 -94.171507 
L 197.666643 -92.354744 
L 195.520695 -90.53798 
L 193.073611 -88.721217 
L 190.361301 -86.904454 
L 187.425286 -85.08769 
L 184.311372 -83.270927 
L 181.068177 -81.454164 
L 177.745571 -79.6374 
L 174.393113 -77.820637 
L 171.058555 -76.003874 
L 167.786475 -74.18711 
L 164.617108 -72.370347 
L 161.585416 -70.553584 
L 158.720419 -68.73682 
L 156.044814 -66.920057 
L 153.574872 -65.103294 
L 151.320589 -63.286531 
L 149.286069 -61.469767 
L 147.470096 -59.653004 
L 145.866835 -57.836241 
L 144.466632 -56.019477 
L 143.256846 -54.202714 
L 142.222684 -52.385951 
L 141.347981 -50.569187 
z
" style="stroke: #3f3f3f; stroke-width: 1.5"/>
    </defs>
    <g clip-path="url(#p47421f968d)">
     <use xlink:href="#m5154f0ae57" x="0" y="288" style="fill: #e1812c; stroke: #3f3f3f; stroke-width: 1.5"/>
    </g>
   </g>
   <g id="PolyCollection_3">
    <defs>
     <path id="md1abfe248a" d="M 305.1 -48.518471 
L 303.380138 -48.518471 
L 303.044396 -50.262965 
L 302.662641 -52.007459 
L 302.232838 -53.751953 
L 301.753746 -55.496448 
L 301.225058 -57.240942 
L 300.647525 -58.985436 
L 300.023038 -60.72993 
L 299.354669 -62.474425 
L 298.646643 -64.218919 
L 297.904255 -65.963413 
L 297.13371 -67.707907 
L 296.341894 -69.452401 
L 295.536071 -71.196896 
L 294.723531 -72.94139 
L 293.911185 -74.685884 
L 293.105135 -76.430378 
L 292.310235 -78.174872 
L 291.529682 -79.919367 
L 290.764641 -81.663861 
L 290.013954 -83.408355 
L 289.273935 -85.152849 
L 288.538293 -86.897343 
L 287.798181 -88.641838 
L 287.042386 -90.386332 
L 286.257669 -92.130826 
L 285.429229 -93.87532 
L 284.541298 -95.619815 
L 283.577832 -97.364309 
L 282.523271 -99.108803 
L 281.363333 -100.853297 
L 280.085815 -102.597791 
L 278.681347 -104.342286 
L 277.144072 -106.08678 
L 275.472214 -107.831274 
L 273.668497 -109.575768 
L 271.740396 -111.320262 
L 269.700195 -113.064757 
L 267.564848 -114.809251 
L 265.355633 -116.553745 
L 263.097618 -118.298239 
L 260.818939 -120.042733 
L 258.549936 -121.787228 
L 256.322165 -123.531722 
L 254.167333 -125.276216 
L 252.116208 -127.02071 
L 250.197542 -128.765205 
L 248.437065 -130.509699 
L 246.856606 -132.254193 
L 245.47337 -133.998687 
L 244.299426 -135.743181 
L 243.341429 -137.487676 
L 242.600589 -139.23217 
L 242.072901 -140.976664 
L 241.749621 -142.721158 
L 241.617962 -144.465652 
L 241.661983 -146.210147 
L 241.863609 -147.954641 
L 242.20373 -149.699135 
L 242.663319 -151.443629 
L 243.224501 -153.188123 
L 243.8715 -154.932618 
L 244.591429 -156.677112 
L 245.374854 -158.421606 
L 246.216118 -160.1661 
L 247.113396 -161.910595 
L 248.068487 -163.655089 
L 249.086366 -165.399583 
L 250.174521 -167.144077 
L 251.342116 -168.888571 
L 252.599065 -170.633066 
L 253.955039 -172.37756 
L 255.418506 -174.122054 
L 256.995846 -175.866548 
L 258.690599 -177.611042 
L 260.502892 -179.355537 
L 262.429073 -181.100031 
L 264.461576 -182.844525 
L 266.589005 -184.589019 
L 268.796432 -186.333513 
L 271.065889 -188.078008 
L 273.376999 -189.822502 
L 275.707729 -191.566996 
L 278.035189 -193.31149 
L 280.336453 -195.055985 
L 282.58935 -196.800479 
L 284.773173 -198.544973 
L 286.869294 -200.289467 
L 288.861651 -202.033961 
L 290.737088 -203.778456 
L 292.485559 -205.52295 
L 294.100186 -207.267444 
L 295.577185 -209.011938 
L 296.91569 -210.756432 
L 298.117475 -212.500927 
L 299.186613 -214.245421 
L 300.1291 -215.989915 
L 300.952442 -217.734409 
L 301.665261 -219.478904 
L 302.276904 -221.223398 
L 305.1 -221.223398 
L 305.1 -221.223398 
L 305.1 -219.478904 
L 305.1 -217.734409 
L 305.1 -215.989915 
L 305.1 -214.245421 
L 305.1 -212.500927 
L 305.1 -210.756432 
L 305.1 -209.011938 
L 305.1 -207.267444 
L 305.1 -205.52295 
L 305.1 -203.778456 
L 305.1 -202.033961 
L 305.1 -200.289467 
L 305.1 -198.544973 
L 305.1 -196.800479 
L 305.1 -195.055985 
L 305.1 -193.31149 
L 305.1 -191.566996 
L 305.1 -189.822502 
L 305.1 -188.078008 
L 305.1 -186.333513 
L 305.1 -184.589019 
L 305.1 -182.844525 
L 305.1 -181.100031 
L 305.1 -179.355537 
L 305.1 -177.611042 
L 305.1 -175.866548 
L 305.1 -174.122054 
L 305.1 -172.37756 
L 305.1 -170.633066 
L 305.1 -168.888571 
L 305.1 -167.144077 
L 305.1 -165.399583 
L 305.1 -163.655089 
L 305.1 -161.910595 
L 305.1 -160.1661 
L 305.1 -158.421606 
L 305.1 -156.677112 
L 305.1 -154.932618 
L 305.1 -153.188123 
L 305.1 -151.443629 
L 305.1 -149.699135 
L 305.1 -147.954641 
L 305.1 -146.210147 
L 305.1 -144.465652 
L 305.1 -142.721158 
L 305.1 -140.976664 
L 305.1 -139.23217 
L 305.1 -137.487676 
L 305.1 -135.743181 
L 305.1 -133.998687 
L 305.1 -132.254193 
L 305.1 -130.509699 
L 305.1 -128.765205 
L 305.1 -127.02071 
L 305.1 -125.276216 
L 305.1 -123.531722 
L 305.1 -121.787228 
L 305.1 -120.042733 
L 305.1 -118.298239 
L 305.1 -116.553745 
L 305.1 -114.809251 
L 305.1 -113.064757 
L 305.1 -111.320262 
L 305.1 -109.575768 
L 305.1 -107.831274 
L 305.1 -106.08678 
L 305.1 -104.342286 
L 305.1 -102.597791 
L 305.1 -100.853297 
L 305.1 -99.108803 
L 305.1 -97.364309 
L 305.1 -95.619815 
L 305.1 -93.87532 
L 305.1 -92.130826 
L 305.1 -90.386332 
L 305.1 -88.641838 
L 305.1 -86.897343 
L 305.1 -85.152849 
L 305.1 -83.408355 
L 305.1 -81.663861 
L 305.1 -79.919367 
L 305.1 -78.174872 
L 305.1 -76.430378 
L 305.1 -74.685884 
L 305.1 -72.94139 
L 305.1 -71.196896 
L 305.1 -69.452401 
L 305.1 -67.707907 
L 305.1 -65.963413 
L 305.1 -64.218919 
L 305.1 -62.474425 
L 305.1 -60.72993 
L 305.1 -58.985436 
L 305.1 -57.240942 
L 305.1 -55.496448 
L 305.1 -53.751953 
L 305.1 -52.007459 
L 305.1 -50.262965 
L 305.1 -48.518471 
z
" style="stroke: #3f3f3f; stroke-width: 1.5"/>
    </defs>
    <g clip-path="url(#p47421f968d)">
     <use xlink:href="#md1abfe248a" x="0" y="288" style="fill: #3274a1; stroke: #3f3f3f; stroke-width: 1.5"/>
    </g>
   </g>
   <g id="PolyCollection_4">
    <defs>
     <path id="m3427e5b7be" d="M 308.015852 -55.885597 
L 305.1 -55.885597 
L 305.1 -57.623382 
L 305.1 -59.361168 
L 305.1 -61.098953 
L 305.1 -62.836739 
L 305.1 -64.574524 
L 305.1 -66.31231 
L 305.1 -68.050096 
L 305.1 -69.787881 
L 305.1 -71.525667 
L 305.1 -73.263452 
L 305.1 -75.001238 
L 305.1 -76.739023 
L 305.1 -78.476809 
L 305.1 -80.214594 
L 305.1 -81.95238 
L 305.1 -83.690165 
L 305.1 -85.427951 
L 305.1 -87.165737 
L 305.1 -88.903522 
L 305.1 -90.641308 
L 305.1 -92.379093 
L 305.1 -94.116879 
L 305.1 -95.854664 
L 305.1 -97.59245 
L 305.1 -99.330235 
L 305.1 -101.068021 
L 305.1 -102.805806 
L 305.1 -104.543592 
L 305.1 -106.281378 
L 305.1 -108.019163 
L 305.1 -109.756949 
L 305.1 -111.494734 
L 305.1 -113.23252 
L 305.1 -114.970305 
L 305.1 -116.708091 
L 305.1 -118.445876 
L 305.1 -120.183662 
L 305.1 -121.921447 
L 305.1 -123.659233 
L 305.1 -125.397019 
L 305.1 -127.134804 
L 305.1 -128.87259 
L 305.1 -130.610375 
L 305.1 -132.348161 
L 305.1 -134.085946 
L 305.1 -135.823732 
L 305.1 -137.561517 
L 305.1 -139.299303 
L 305.1 -141.037088 
L 305.1 -142.774874 
L 305.1 -144.51266 
L 305.1 -146.250445 
L 305.1 -147.988231 
L 305.1 -149.726016 
L 305.1 -151.463802 
L 305.1 -153.201587 
L 305.1 -154.939373 
L 305.1 -156.677158 
L 305.1 -158.414944 
L 305.1 -160.152729 
L 305.1 -161.890515 
L 305.1 -163.628301 
L 305.1 -165.366086 
L 305.1 -167.103872 
L 305.1 -168.841657 
L 305.1 -170.579443 
L 305.1 -172.317228 
L 305.1 -174.055014 
L 305.1 -175.792799 
L 305.1 -177.530585 
L 305.1 -179.26837 
L 305.1 -181.006156 
L 305.1 -182.743942 
L 305.1 -184.481727 
L 305.1 -186.219513 
L 305.1 -187.957298 
L 305.1 -189.695084 
L 305.1 -191.432869 
L 305.1 -193.170655 
L 305.1 -194.90844 
L 305.1 -196.646226 
L 305.1 -198.384011 
L 305.1 -200.121797 
L 305.1 -201.859583 
L 305.1 -203.597368 
L 305.1 -205.335154 
L 305.1 -207.072939 
L 305.1 -208.810725 
L 305.1 -210.54851 
L 305.1 -212.286296 
L 305.1 -214.024081 
L 305.1 -215.761867 
L 305.1 -217.499652 
L 305.1 -219.237438 
L 305.1 -220.975224 
L 305.1 -222.713009 
L 305.1 -224.450795 
L 305.1 -226.18858 
L 305.1 -227.926366 
L 305.882906 -227.926366 
L 305.882906 -227.926366 
L 306.09008 -226.18858 
L 306.338287 -224.450795 
L 306.63189 -222.713009 
L 306.974836 -220.975224 
L 307.370449 -219.237438 
L 307.821252 -217.499652 
L 308.328811 -215.761867 
L 308.893633 -214.024081 
L 309.515134 -212.286296 
L 310.191684 -210.54851 
L 310.92073 -208.810725 
L 311.698993 -207.072939 
L 312.522727 -205.335154 
L 313.388013 -203.597368 
L 314.291052 -201.859583 
L 315.228433 -200.121797 
L 316.197327 -198.384011 
L 317.195588 -196.646226 
L 318.221735 -194.90844 
L 319.274803 -193.170655 
L 320.354084 -191.432869 
L 321.458764 -189.695084 
L 322.587519 -187.957298 
L 323.738094 -186.219513 
L 324.906942 -184.481727 
L 326.088976 -182.743942 
L 327.277454 -181.006156 
L 328.464069 -179.26837 
L 329.639218 -177.530585 
L 330.792458 -175.792799 
L 331.913116 -174.055014 
L 332.990999 -172.317228 
L 334.017142 -170.579443 
L 334.984538 -168.841657 
L 335.888771 -167.103872 
L 336.728519 -165.366086 
L 337.50587 -163.628301 
L 338.22644 -161.890515 
L 338.899287 -160.152729 
L 339.536636 -158.414944 
L 340.153434 -156.677158 
L 340.766763 -154.939373 
L 341.395152 -153.201587 
L 342.057815 -151.463802 
L 342.773835 -149.726016 
L 343.561335 -147.988231 
L 344.436647 -146.250445 
L 345.413508 -144.51266 
L 346.502308 -142.774874 
L 347.709425 -141.037088 
L 349.03667 -139.299303 
L 350.480898 -137.561517 
L 352.03379 -135.823732 
L 353.681869 -134.085946 
L 355.406737 -132.348161 
L 357.185546 -130.610375 
L 358.991687 -128.87259 
L 360.795648 -127.134804 
L 362.566002 -125.397019 
L 364.270438 -123.659233 
L 365.876789 -121.921447 
L 367.353963 -120.183662 
L 368.672742 -118.445876 
L 369.806391 -116.708091 
L 370.731073 -114.970305 
L 371.426072 -113.23252 
L 371.873853 -111.494734 
L 372.06 -109.756949 
L 371.973103 -108.019163 
L 371.604636 -106.281378 
L 370.948902 -104.543592 
L 370.003058 -102.805806 
L 368.767274 -101.068021 
L 367.244992 -99.330235 
L 365.443284 -97.59245 
L 363.373241 -95.854664 
L 361.050357 -94.116879 
L 358.4948 -92.379093 
L 355.731544 -90.641308 
L 352.79026 -88.903522 
L 349.70496 -87.165737 
L 346.513347 -85.427951 
L 343.255903 -83.690165 
L 339.974744 -81.95238 
L 336.712304 -80.214594 
L 333.509936 -78.476809 
L 330.406517 -76.739023 
L 327.437157 -75.001238 
L 324.632096 -73.263452 
L 322.015856 -71.525667 
L 319.606707 -69.787881 
L 317.41645 -68.050096 
L 315.45053 -66.31231 
L 313.708445 -64.574524 
L 312.18439 -62.836739 
L 310.868087 -61.098953 
L 309.74573 -59.361168 
L 308.800966 -57.623382 
L 308.015852 -55.885597 
z
" style="stroke: #3f3f3f; stroke-width: 1.5"/>
    </defs>
    <g clip-path="url(#p47421f968d)">
     <use xlink:href="#m3427e5b7be" x="0" y="288" style="fill: #e1812c; stroke: #3f3f3f; stroke-width: 1.5"/>
    </g>
   </g>
   <g id="matplotlib.axis_1">
    <g id="xtick_1">
     <g id="line2d_1">
      <defs>
       <path id="m2fbdaff3cd" d="M 0 0 
L 0 3.5 
" style="stroke: #000000; stroke-width: 0.8"/>
      </defs>
      <g>
       <use xlink:href="#m2fbdaff3cd" x="137.7" y="252" style="stroke: #000000; stroke-width: 0.8"/>
      </g>
     </g>
     <g id="text_1">
      <!-- Female -->
      <g transform="translate(119.622656 266.598437)scale(0.1 -0.1)">
       <defs>
        <path id="DejaVuSans-46" d="M 628 4666 
L 3309 4666 
L 3309 4134 
L 1259 4134 
L 1259 2759 
L 3109 2759 
L 3109 2228 
L 1259 2228 
L 1259 0 
L 628 0 
L 628 4666 
z
" transform="scale(0.015625)"/>
        <path id="DejaVuSans-65" d="M 3597 1894 
L 3597 1613 
L 953 1613 
Q 991 1019 1311 708 
Q 1631 397 2203 397 
Q 2534 397 2845 478 
Q 3156 559 3463 722 
L 3463 178 
Q 3153 47 2828 -22 
Q 2503 -91 2169 -91 
Q 1331 -91 842 396 
Q 353 884 353 1716 
Q 353 2575 817 3079 
Q 1281 3584 2069 3584 
Q 2775 3584 3186 3129 
Q 3597 2675 3597 1894 
z
M 3022 2063 
Q 3016 2534 2758 2815 
Q 2500 3097 2075 3097 
Q 1594 3097 1305 2825 
Q 1016 2553 972 2059 
L 3022 2063 
z
" transform="scale(0.015625)"/>
        <path id="DejaVuSans-6d" d="M 3328 2828 
Q 3544 3216 3844 3400 
Q 4144 3584 4550 3584 
Q 5097 3584 5394 3201 
Q 5691 2819 5691 2113 
L 5691 0 
L 5113 0 
L 5113 2094 
Q 5113 2597 4934 2840 
Q 4756 3084 4391 3084 
Q 3944 3084 3684 2787 
Q 3425 2491 3425 1978 
L 3425 0 
L 2847 0 
L 2847 2094 
Q 2847 2600 2669 2842 
Q 2491 3084 2119 3084 
Q 1678 3084 1418 2786 
Q 1159 2488 1159 1978 
L 1159 0 
L 581 0 
L 581 3500 
L 1159 3500 
L 1159 2956 
Q 1356 3278 1631 3431 
Q 1906 3584 2284 3584 
Q 2666 3584 2933 3390 
Q 3200 3197 3328 2828 
z
" transform="scale(0.015625)"/>
        <path id="DejaVuSans-61" d="M 2194 1759 
Q 1497 1759 1228 1600 
Q 959 1441 959 1056 
Q 959 750 1161 570 
Q 1363 391 1709 391 
Q 2188 391 2477 730 
Q 2766 1069 2766 1631 
L 2766 1759 
L 2194 1759 
z
M 3341 1997 
L 3341 0 
L 2766 0 
L 2766 531 
Q 2569 213 2275 61 
Q 1981 -91 1556 -91 
Q 1019 -91 701 211 
Q 384 513 384 1019 
Q 384 1609 779 1909 
Q 1175 2209 1959 2209 
L 2766 2209 
L 2766 2266 
Q 2766 2663 2505 2880 
Q 2244 3097 1772 3097 
Q 1472 3097 1187 3025 
Q 903 2953 641 2809 
L 641 3341 
Q 956 3463 1253 3523 
Q 1550 3584 1831 3584 
Q 2591 3584 2966 3190 
Q 3341 2797 3341 1997 
z
" transform="scale(0.015625)"/>
        <path id="DejaVuSans-6c" d="M 603 4863 
L 1178 4863 
L 1178 0 
L 603 0 
L 603 4863 
z
" transform="scale(0.015625)"/>
       </defs>
       <use xlink:href="#DejaVuSans-46"/>
       <use xlink:href="#DejaVuSans-65" x="52.019531"/>
       <use xlink:href="#DejaVuSans-6d" x="113.542969"/>
       <use xlink:href="#DejaVuSans-61" x="210.955078"/>
       <use xlink:href="#DejaVuSans-6c" x="272.234375"/>
       <use xlink:href="#DejaVuSans-65" x="300.017578"/>
      </g>
     </g>
    </g>
    <g id="xtick_2">
     <g id="line2d_2">
      <g>
       <use xlink:href="#m2fbdaff3cd" x="305.1" y="252" style="stroke: #000000; stroke-width: 0.8"/>
      </g>
     </g>
     <g id="text_2">
      <!-- Male -->
      <g transform="translate(293.25625 266.598437)scale(0.1 -0.1)">
       <defs>
        <path id="DejaVuSans-4d" d="M 628 4666 
L 1569 4666 
L 2759 1491 
L 3956 4666 
L 4897 4666 
L 4897 0 
L 4281 0 
L 4281 4097 
L 3078 897 
L 2444 897 
L 1241 4097 
L 1241 0 
L 628 0 
L 628 4666 
z
" transform="scale(0.015625)"/>
       </defs>
       <use xlink:href="#DejaVuSans-4d"/>
       <use xlink:href="#DejaVuSans-61" x="86.279297"/>
       <use xlink:href="#DejaVuSans-6c" x="147.558594"/>
       <use xlink:href="#DejaVuSans-65" x="175.341797"/>
      </g>
     </g>
    </g>
    <g id="text_3">
     <!-- gender -->
     <g transform="translate(203.674219 280.276563)scale(0.1 -0.1)">
      <defs>
       <path id="DejaVuSans-67" d="M 2906 1791 
Q 2906 2416 2648 2759 
Q 2391 3103 1925 3103 
Q 1463 3103 1205 2759 
Q 947 2416 947 1791 
Q 947 1169 1205 825 
Q 1463 481 1925 481 
Q 2391 481 2648 825 
Q 2906 1169 2906 1791 
z
M 3481 434 
Q 3481 -459 3084 -895 
Q 2688 -1331 1869 -1331 
Q 1566 -1331 1297 -1286 
Q 1028 -1241 775 -1147 
L 775 -588 
Q 1028 -725 1275 -790 
Q 1522 -856 1778 -856 
Q 2344 -856 2625 -561 
Q 2906 -266 2906 331 
L 2906 616 
Q 2728 306 2450 153 
Q 2172 0 1784 0 
Q 1141 0 747 490 
Q 353 981 353 1791 
Q 353 2603 747 3093 
Q 1141 3584 1784 3584 
Q 2172 3584 2450 3431 
Q 2728 3278 2906 2969 
L 2906 3500 
L 3481 3500 
L 3481 434 
z
" transform="scale(0.015625)"/>
       <path id="DejaVuSans-6e" d="M 3513 2113 
L 3513 0 
L 2938 0 
L 2938 2094 
Q 2938 2591 2744 2837 
Q 2550 3084 2163 3084 
Q 1697 3084 1428 2787 
Q 1159 2491 1159 1978 
L 1159 0 
L 581 0 
L 581 3500 
L 1159 3500 
L 1159 2956 
Q 1366 3272 1645 3428 
Q 1925 3584 2291 3584 
Q 2894 3584 3203 3211 
Q 3513 2838 3513 2113 
z
" transform="scale(0.015625)"/>
       <path id="DejaVuSans-64" d="M 2906 2969 
L 2906 4863 
L 3481 4863 
L 3481 0 
L 2906 0 
L 2906 525 
Q 2725 213 2448 61 
Q 2172 -91 1784 -91 
Q 1150 -91 751 415 
Q 353 922 353 1747 
Q 353 2572 751 3078 
Q 1150 3584 1784 3584 
Q 2172 3584 2448 3432 
Q 2725 3281 2906 2969 
z
M 947 1747 
Q 947 1113 1208 752 
Q 1469 391 1925 391 
Q 2381 391 2643 752 
Q 2906 1113 2906 1747 
Q 2906 2381 2643 2742 
Q 2381 3103 1925 3103 
Q 1469 3103 1208 2742 
Q 947 2381 947 1747 
z
" transform="scale(0.015625)"/>
       <path id="DejaVuSans-72" d="M 2631 2963 
Q 2534 3019 2420 3045 
Q 2306 3072 2169 3072 
Q 1681 3072 1420 2755 
Q 1159 2438 1159 1844 
L 1159 0 
L 581 0 
L 581 3500 
L 1159 3500 
L 1159 2956 
Q 1341 3275 1631 3429 
Q 1922 3584 2338 3584 
Q 2397 3584 2469 3576 
Q 2541 3569 2628 3553 
L 2631 2963 
z
" transform="scale(0.015625)"/>
      </defs>
      <use xlink:href="#DejaVuSans-67"/>
      <use xlink:href="#DejaVuSans-65" x="63.476562"/>
      <use xlink:href="#DejaVuSans-6e" x="125"/>
      <use xlink:href="#DejaVuSans-64" x="188.378906"/>
      <use xlink:href="#DejaVuSans-65" x="251.855469"/>
      <use xlink:href="#DejaVuSans-72" x="313.378906"/>
     </g>
    </g>
   </g>
   <g id="matplotlib.axis_2">
    <g id="ytick_1">
     <g id="line2d_3">
      <defs>
       <path id="m0408c8e5a0" d="M 0 0 
L -3.5 0 
" style="stroke: #000000; stroke-width: 0.8"/>
      </defs>
      <g>
       <use xlink:href="#m0408c8e5a0" x="54" y="243.177667" style="stroke: #000000; stroke-width: 0.8"/>
      </g>
     </g>
     <g id="text_4">
      <!-- 0 -->
      <g transform="translate(40.6375 246.976885)scale(0.1 -0.1)">
       <defs>
        <path id="DejaVuSans-30" d="M 2034 4250 
Q 1547 4250 1301 3770 
Q 1056 3291 1056 2328 
Q 1056 1369 1301 889 
Q 1547 409 2034 409 
Q 2525 409 2770 889 
Q 3016 1369 3016 2328 
Q 3016 3291 2770 3770 
Q 2525 4250 2034 4250 
z
M 2034 4750 
Q 2819 4750 3233 4129 
Q 3647 3509 3647 2328 
Q 3647 1150 3233 529 
Q 2819 -91 2034 -91 
Q 1250 -91 836 529 
Q 422 1150 422 2328 
Q 422 3509 836 4129 
Q 1250 4750 2034 4750 
z
" transform="scale(0.015625)"/>
       </defs>
       <use xlink:href="#DejaVuSans-30"/>
      </g>
     </g>
    </g>
    <g id="ytick_2">
     <g id="line2d_4">
      <g>
       <use xlink:href="#m0408c8e5a0" x="54" y="215.037479" style="stroke: #000000; stroke-width: 0.8"/>
      </g>
     </g>
     <g id="text_5">
      <!-- 10 -->
      <g transform="translate(34.275 218.836698)scale(0.1 -0.1)">
       <defs>
        <path id="DejaVuSans-31" d="M 794 531 
L 1825 531 
L 1825 4091 
L 703 3866 
L 703 4441 
L 1819 4666 
L 2450 4666 
L 2450 531 
L 3481 531 
L 3481 0 
L 794 0 
L 794 531 
z
" transform="scale(0.015625)"/>
       </defs>
       <use xlink:href="#DejaVuSans-31"/>
       <use xlink:href="#DejaVuSans-30" x="63.623047"/>
      </g>
     </g>
    </g>
    <g id="ytick_3">
     <g id="line2d_5">
      <g>
       <use xlink:href="#m0408c8e5a0" x="54" y="186.897291" style="stroke: #000000; stroke-width: 0.8"/>
      </g>
     </g>
     <g id="text_6">
      <!-- 20 -->
      <g transform="translate(34.275 190.69651)scale(0.1 -0.1)">
       <defs>
        <path id="DejaVuSans-32" d="M 1228 531 
L 3431 531 
L 3431 0 
L 469 0 
L 469 531 
Q 828 903 1448 1529 
Q 2069 2156 2228 2338 
Q 2531 2678 2651 2914 
Q 2772 3150 2772 3378 
Q 2772 3750 2511 3984 
Q 2250 4219 1831 4219 
Q 1534 4219 1204 4116 
Q 875 4013 500 3803 
L 500 4441 
Q 881 4594 1212 4672 
Q 1544 4750 1819 4750 
Q 2544 4750 2975 4387 
Q 3406 4025 3406 3419 
Q 3406 3131 3298 2873 
Q 3191 2616 2906 2266 
Q 2828 2175 2409 1742 
Q 1991 1309 1228 531 
z
" transform="scale(0.015625)"/>
       </defs>
       <use xlink:href="#DejaVuSans-32"/>
       <use xlink:href="#DejaVuSans-30" x="63.623047"/>
      </g>
     </g>
    </g>
    <g id="ytick_4">
     <g id="line2d_6">
      <g>
       <use xlink:href="#m0408c8e5a0" x="54" y="158.757103" style="stroke: #000000; stroke-width: 0.8"/>
      </g>
     </g>
     <g id="text_7">
      <!-- 30 -->
      <g transform="translate(34.275 162.556322)scale(0.1 -0.1)">
       <defs>
        <path id="DejaVuSans-33" d="M 2597 2516 
Q 3050 2419 3304 2112 
Q 3559 1806 3559 1356 
Q 3559 666 3084 287 
Q 2609 -91 1734 -91 
Q 1441 -91 1130 -33 
Q 819 25 488 141 
L 488 750 
Q 750 597 1062 519 
Q 1375 441 1716 441 
Q 2309 441 2620 675 
Q 2931 909 2931 1356 
Q 2931 1769 2642 2001 
Q 2353 2234 1838 2234 
L 1294 2234 
L 1294 2753 
L 1863 2753 
Q 2328 2753 2575 2939 
Q 2822 3125 2822 3475 
Q 2822 3834 2567 4026 
Q 2313 4219 1838 4219 
Q 1578 4219 1281 4162 
Q 984 4106 628 3988 
L 628 4550 
Q 988 4650 1302 4700 
Q 1616 4750 1894 4750 
Q 2613 4750 3031 4423 
Q 3450 4097 3450 3541 
Q 3450 3153 3228 2886 
Q 3006 2619 2597 2516 
z
" transform="scale(0.015625)"/>
       </defs>
       <use xlink:href="#DejaVuSans-33"/>
       <use xlink:href="#DejaVuSans-30" x="63.623047"/>
      </g>
     </g>
    </g>
    <g id="ytick_5">
     <g id="line2d_7">
      <g>
       <use xlink:href="#m0408c8e5a0" x="54" y="130.616915" style="stroke: #000000; stroke-width: 0.8"/>
      </g>
     </g>
     <g id="text_8">
      <!-- 40 -->
      <g transform="translate(34.275 134.416134)scale(0.1 -0.1)">
       <defs>
        <path id="DejaVuSans-34" d="M 2419 4116 
L 825 1625 
L 2419 1625 
L 2419 4116 
z
M 2253 4666 
L 3047 4666 
L 3047 1625 
L 3713 1625 
L 3713 1100 
L 3047 1100 
L 3047 0 
L 2419 0 
L 2419 1100 
L 313 1100 
L 313 1709 
L 2253 4666 
z
" transform="scale(0.015625)"/>
       </defs>
       <use xlink:href="#DejaVuSans-34"/>
       <use xlink:href="#DejaVuSans-30" x="63.623047"/>
      </g>
     </g>
    </g>
    <g id="ytick_6">
     <g id="line2d_8">
      <g>
       <use xlink:href="#m0408c8e5a0" x="54" y="102.476728" style="stroke: #000000; stroke-width: 0.8"/>
      </g>
     </g>
     <g id="text_9">
      <!-- 50 -->
      <g transform="translate(34.275 106.275946)scale(0.1 -0.1)">
       <defs>
        <path id="DejaVuSans-35" d="M 691 4666 
L 3169 4666 
L 3169 4134 
L 1269 4134 
L 1269 2991 
Q 1406 3038 1543 3061 
Q 1681 3084 1819 3084 
Q 2600 3084 3056 2656 
Q 3513 2228 3513 1497 
Q 3513 744 3044 326 
Q 2575 -91 1722 -91 
Q 1428 -91 1123 -41 
Q 819 9 494 109 
L 494 744 
Q 775 591 1075 516 
Q 1375 441 1709 441 
Q 2250 441 2565 725 
Q 2881 1009 2881 1497 
Q 2881 1984 2565 2268 
Q 2250 2553 1709 2553 
Q 1456 2553 1204 2497 
Q 953 2441 691 2322 
L 691 4666 
z
" transform="scale(0.015625)"/>
       </defs>
       <use xlink:href="#DejaVuSans-35"/>
       <use xlink:href="#DejaVuSans-30" x="63.623047"/>
      </g>
     </g>
    </g>
    <g id="ytick_7">
     <g id="line2d_9">
      <g>
       <use xlink:href="#m0408c8e5a0" x="54" y="74.33654" style="stroke: #000000; stroke-width: 0.8"/>
      </g>
     </g>
     <g id="text_10">
      <!-- 60 -->
      <g transform="translate(34.275 78.135759)scale(0.1 -0.1)">
       <defs>
        <path id="DejaVuSans-36" d="M 2113 2584 
Q 1688 2584 1439 2293 
Q 1191 2003 1191 1497 
Q 1191 994 1439 701 
Q 1688 409 2113 409 
Q 2538 409 2786 701 
Q 3034 994 3034 1497 
Q 3034 2003 2786 2293 
Q 2538 2584 2113 2584 
z
M 3366 4563 
L 3366 3988 
Q 3128 4100 2886 4159 
Q 2644 4219 2406 4219 
Q 1781 4219 1451 3797 
Q 1122 3375 1075 2522 
Q 1259 2794 1537 2939 
Q 1816 3084 2150 3084 
Q 2853 3084 3261 2657 
Q 3669 2231 3669 1497 
Q 3669 778 3244 343 
Q 2819 -91 2113 -91 
Q 1303 -91 875 529 
Q 447 1150 447 2328 
Q 447 3434 972 4092 
Q 1497 4750 2381 4750 
Q 2619 4750 2861 4703 
Q 3103 4656 3366 4563 
z
" transform="scale(0.015625)"/>
       </defs>
       <use xlink:href="#DejaVuSans-36"/>
       <use xlink:href="#DejaVuSans-30" x="63.623047"/>
      </g>
     </g>
    </g>
    <g id="ytick_8">
     <g id="line2d_10">
      <g>
       <use xlink:href="#m0408c8e5a0" x="54" y="46.196352" style="stroke: #000000; stroke-width: 0.8"/>
      </g>
     </g>
     <g id="text_11">
      <!-- 70 -->
      <g transform="translate(34.275 49.995571)scale(0.1 -0.1)">
       <defs>
        <path id="DejaVuSans-37" d="M 525 4666 
L 3525 4666 
L 3525 4397 
L 1831 0 
L 1172 0 
L 2766 4134 
L 525 4134 
L 525 4666 
z
" transform="scale(0.015625)"/>
       </defs>
       <use xlink:href="#DejaVuSans-37"/>
       <use xlink:href="#DejaVuSans-30" x="63.623047"/>
      </g>
     </g>
    </g>
    <g id="text_12">
     <!-- age -->
     <g transform="translate(28.195312 152.594844)rotate(-90)scale(0.1 -0.1)">
      <use xlink:href="#DejaVuSans-61"/>
      <use xlink:href="#DejaVuSans-67" x="61.279297"/>
      <use xlink:href="#DejaVuSans-65" x="124.755859"/>
     </g>
    </g>
   </g>
   <g id="line2d_11">
    <path d="M 78.724268 161.571122 
L 137.7 161.571122 
" clip-path="url(#p47421f968d)" style="fill: none; stroke-dasharray: 3.375,3.375; stroke-dashoffset: 0; stroke: #3f3f3f; stroke-width: 1.5"/>
   </g>
   <g id="line2d_12">
    <path d="M 71.456545 147.501028 
L 137.7 147.501028 
" clip-path="url(#p47421f968d)" style="fill: none; stroke-dasharray: 6.75,6.75; stroke-dashoffset: 0; stroke: #3f3f3f; stroke-width: 1.5"/>
   </g>
   <g id="line2d_13">
    <path d="M 81.676428 125.692383 
L 137.7 125.692383 
" clip-path="url(#p47421f968d)" style="fill: none; stroke-dasharray: 3.375,3.375; stroke-dashoffset: 0; stroke: #3f3f3f; stroke-width: 1.5"/>
   </g>
   <g id="line2d_14">
    <path d="M 137.7 189.71131 
L 201.400789 189.71131 
" clip-path="url(#p47421f968d)" style="fill: none; stroke-dasharray: 3.375,3.375; stroke-dashoffset: 0; stroke: #3f3f3f; stroke-width: 1.5"/>
   </g>
   <g id="line2d_15">
    <path d="M 137.7 170.013178 
L 192.991751 170.013178 
" clip-path="url(#p47421f968d)" style="fill: none; stroke-dasharray: 6.75,6.75; stroke-dashoffset: 0; stroke: #3f3f3f; stroke-width: 1.5"/>
   </g>
   <g id="line2d_16">
    <path d="M 137.7 112.325793 
L 173.549448 112.325793 
" clip-path="url(#p47421f968d)" style="fill: none; stroke-dasharray: 3.375,3.375; stroke-dashoffset: 0; stroke: #3f3f3f; stroke-width: 1.5"/>
   </g>
   <g id="line2d_17">
    <path d="M 246.069636 153.129066 
L 305.1 153.129066 
" clip-path="url(#p47421f968d)" style="fill: none; stroke-dasharray: 3.375,3.375; stroke-dashoffset: 0; stroke: #3f3f3f; stroke-width: 1.5"/>
   </g>
   <g id="line2d_18">
    <path d="M 242.703172 147.501028 
L 305.1 147.501028 
" clip-path="url(#p47421f968d)" style="fill: none; stroke-dasharray: 6.75,6.75; stroke-dashoffset: 0; stroke: #3f3f3f; stroke-width: 1.5"/>
   </g>
   <g id="line2d_19">
    <path d="M 253.124074 116.546822 
L 305.1 116.546822 
" clip-path="url(#p47421f968d)" style="fill: none; stroke-dasharray: 3.375,3.375; stroke-dashoffset: 0; stroke: #3f3f3f; stroke-width: 1.5"/>
   </g>
   <g id="line2d_20">
    <path d="M 305.1 184.786777 
L 369.354028 184.786777 
" clip-path="url(#p47421f968d)" style="fill: none; stroke-dasharray: 3.375,3.375; stroke-dashoffset: 0; stroke: #3f3f3f; stroke-width: 1.5"/>
   </g>
   <g id="line2d_21">
    <path d="M 305.1 167.19916 
L 366.731424 167.19916 
" clip-path="url(#p47421f968d)" style="fill: none; stroke-dasharray: 6.75,6.75; stroke-dashoffset: 0; stroke: #3f3f3f; stroke-width: 1.5"/>
   </g>
   <g id="line2d_22">
    <path d="M 305.1 142.576495 
L 344.043281 142.576495 
" clip-path="url(#p47421f968d)" style="fill: none; stroke-dasharray: 3.375,3.375; stroke-dashoffset: 0; stroke: #3f3f3f; stroke-width: 1.5"/>
   </g>
   <g id="patch_5">
    <path d="M 54 252 
L 54 34.56 
" style="fill: none; stroke: #000000; stroke-width: 0.8; stroke-linejoin: miter; stroke-linecap: square"/>
   </g>
   <g id="patch_6">
    <path d="M 388.8 252 
L 388.8 34.56 
" style="fill: none; stroke: #000000; stroke-width: 0.8; stroke-linejoin: miter; stroke-linecap: square"/>
   </g>
   <g id="patch_7">
    <path d="M 54 252 
L 388.8 252 
" style="fill: none; stroke: #000000; stroke-width: 0.8; stroke-linejoin: miter; stroke-linecap: square"/>
   </g>
   <g id="patch_8">
    <path d="M 54 34.56 
L 388.8 34.56 
" style="fill: none; stroke: #000000; stroke-width: 0.8; stroke-linejoin: miter; stroke-linecap: square"/>
   </g>
   <g id="legend_1">
    <g id="patch_9">
     <path d="M 332.384375 86.594375 
L 381.8 86.594375 
Q 383.8 86.594375 383.8 84.594375 
L 383.8 41.56 
Q 383.8 39.56 381.8 39.56 
L 332.384375 39.56 
Q 330.384375 39.56 330.384375 41.56 
L 330.384375 84.594375 
Q 330.384375 86.594375 332.384375 86.594375 
z
" style="fill: #ffffff; opacity: 0.8; stroke: #cccccc; stroke-linejoin: miter"/>
    </g>
    <g id="text_13">
     <!-- response -->
     <g transform="translate(334.384375 51.158438)scale(0.1 -0.1)">
      <defs>
       <path id="DejaVuSans-73" d="M 2834 3397 
L 2834 2853 
Q 2591 2978 2328 3040 
Q 2066 3103 1784 3103 
Q 1356 3103 1142 2972 
Q 928 2841 928 2578 
Q 928 2378 1081 2264 
Q 1234 2150 1697 2047 
L 1894 2003 
Q 2506 1872 2764 1633 
Q 3022 1394 3022 966 
Q 3022 478 2636 193 
Q 2250 -91 1575 -91 
Q 1294 -91 989 -36 
Q 684 19 347 128 
L 347 722 
Q 666 556 975 473 
Q 1284 391 1588 391 
Q 1994 391 2212 530 
Q 2431 669 2431 922 
Q 2431 1156 2273 1281 
Q 2116 1406 1581 1522 
L 1381 1569 
Q 847 1681 609 1914 
Q 372 2147 372 2553 
Q 372 3047 722 3315 
Q 1072 3584 1716 3584 
Q 2034 3584 2315 3537 
Q 2597 3491 2834 3397 
z
" transform="scale(0.015625)"/>
       <path id="DejaVuSans-70" d="M 1159 525 
L 1159 -1331 
L 581 -1331 
L 581 3500 
L 1159 3500 
L 1159 2969 
Q 1341 3281 1617 3432 
Q 1894 3584 2278 3584 
Q 2916 3584 3314 3078 
Q 3713 2572 3713 1747 
Q 3713 922 3314 415 
Q 2916 -91 2278 -91 
Q 1894 -91 1617 61 
Q 1341 213 1159 525 
z
M 3116 1747 
Q 3116 2381 2855 2742 
Q 2594 3103 2138 3103 
Q 1681 3103 1420 2742 
Q 1159 2381 1159 1747 
Q 1159 1113 1420 752 
Q 1681 391 2138 391 
Q 2594 391 2855 752 
Q 3116 1113 3116 1747 
z
" transform="scale(0.015625)"/>
       <path id="DejaVuSans-6f" d="M 1959 3097 
Q 1497 3097 1228 2736 
Q 959 2375 959 1747 
Q 959 1119 1226 758 
Q 1494 397 1959 397 
Q 2419 397 2687 759 
Q 2956 1122 2956 1747 
Q 2956 2369 2687 2733 
Q 2419 3097 1959 3097 
z
M 1959 3584 
Q 2709 3584 3137 3096 
Q 3566 2609 3566 1747 
Q 3566 888 3137 398 
Q 2709 -91 1959 -91 
Q 1206 -91 779 398 
Q 353 888 353 1747 
Q 353 2609 779 3096 
Q 1206 3584 1959 3584 
z
" transform="scale(0.015625)"/>
      </defs>
      <use xlink:href="#DejaVuSans-72"/>
      <use xlink:href="#DejaVuSans-65" x="38.863281"/>
      <use xlink:href="#DejaVuSans-73" x="100.386719"/>
      <use xlink:href="#DejaVuSans-70" x="152.486328"/>
      <use xlink:href="#DejaVuSans-6f" x="215.962891"/>
      <use xlink:href="#DejaVuSans-6e" x="277.144531"/>
      <use xlink:href="#DejaVuSans-73" x="340.523438"/>
      <use xlink:href="#DejaVuSans-65" x="392.623047"/>
     </g>
    </g>
    <g id="patch_10">
     <path d="M 335.019531 65.836563 
L 355.019531 65.836563 
L 355.019531 58.836563 
L 335.019531 58.836563 
z
" style="fill: #3274a1; stroke: #3f3f3f; stroke-width: 0.75; stroke-linejoin: miter"/>
    </g>
    <g id="text_14">
     <!-- No -->
     <g transform="translate(363.019531 65.836563)scale(0.1 -0.1)">
      <defs>
       <path id="DejaVuSans-4e" d="M 628 4666 
L 1478 4666 
L 3547 763 
L 3547 4666 
L 4159 4666 
L 4159 0 
L 3309 0 
L 1241 3903 
L 1241 0 
L 628 0 
L 628 4666 
z
" transform="scale(0.015625)"/>
      </defs>
      <use xlink:href="#DejaVuSans-4e"/>
      <use xlink:href="#DejaVuSans-6f" x="74.804688"/>
     </g>
    </g>
    <g id="patch_11">
     <path d="M 335.019531 80.514688 
L 355.019531 80.514688 
L 355.019531 73.514688 
L 335.019531 73.514688 
z
" style="fill: #e1812c; stroke: #3f3f3f; stroke-width: 0.75; stroke-linejoin: miter"/>
    </g>
    <g id="text_15">
     <!-- Yes -->
     <g transform="translate(363.019531 80.514688)scale(0.1 -0.1)">
      <defs>
       <path id="DejaVuSans-59" d="M -13 4666 
L 666 4666 
L 1959 2747 
L 3244 4666 
L 3922 4666 
L 2272 2222 
L 2272 0 
L 1638 0 
L 1638 2222 
L -13 4666 
z
" transform="scale(0.015625)"/>
      </defs>
      <use xlink:href="#DejaVuSans-59"/>
      <use xlink:href="#DejaVuSans-65" x="47.833984"/>
      <use xlink:href="#DejaVuSans-73" x="109.357422"/>
     </g>
    </g>
   </g>
  </g>
 </g>
 <defs>
  <clipPath id="p47421f968d">
   <rect x="54" y="34.56" width="334.8" height="217.44"/>
  </clipPath>
 </defs>
</svg>
