<?xml version="1.0" encoding="utf-8" standalone="no"?>
<!DOCTYPE svg PUBLIC "-//W3C//DTD SVG 1.1//EN"
  "http://www.w3.org/Graphics/SVG/1.1/DTD/svg11.dtd">
<svg xmlns:xlink="http://www.w3.org/1999/xlink" width="432pt" height="288pt" viewBox="0 0 432 288" xmlns="http://www.w3.org/2000/svg" version="1.1">
 <metadata>
  <rdf:RDF xmlns:dc="http://purl.org/dc/elements/1.1/" xmlns:cc="http://creativecommons.org/ns#" xmlns:rdf="http://www.w3.org/1999/02/22-rdf-syntax-ns#">
   <cc:Work>
    <dc:type rdf:resource="http://purl.org/dc/dcmitype/StillImage"/>
    <dc:date>2022-02-25T01:51:42.334959</dc:date>
    <dc:format>image/svg+xml</dc:format>
    <dc:creator>
     <cc:Agent>
      <dc:title>Matplotlib v3.5.1, https://matplotlib.org/</dc:title>
     </cc:Agent>
    </dc:creator>
   </cc:Work>
  </rdf:RDF>
 </metadata>
 <defs>
  <style type="text/css">*{stroke-linejoin: round; stroke-linecap: butt}</style>
 </defs>
 <g id="figure_1">
  <g id="patch_1">
   <path d="M 0 288 
L 432 288 
L 432 0 
L 0 0 
L 0 288 
z
" style="fill: none"/>
  </g>
  <g id="axes_1">
   <g id="patch_2">
    <path d="M 54 252 
L 388.8 252 
L 388.8 34.56 
L 54 34.56 
z
" style="fill: #ffffff"/>
   </g>
   <g id="PolyCollection_1">
    <defs>
     <path id="me44dd4f052" d="M 110.964602 -52.571789 
L 108.635398 -52.571789 
L 108.363997 -54.46211 
L 108.047348 -56.352431 
L 107.68255 -58.242752 
L 107.267649 -60.133073 
L 106.801906 -62.023394 
L 106.286039 -63.913715 
L 105.722435 -65.804036 
L 105.115309 -67.694357 
L 104.470775 -69.584678 
L 103.79684 -71.474999 
L 103.103289 -73.36532 
L 102.401461 -75.255641 
L 101.703926 -77.145962 
L 101.024067 -79.036283 
L 100.375578 -80.926604 
L 99.771921 -82.816925 
L 99.225748 -84.707245 
L 98.748337 -86.597566 
L 98.349062 -88.487887 
L 98.034939 -90.378208 
L 97.810255 -92.268529 
L 97.676309 -94.15885 
L 97.631279 -96.049171 
L 97.670198 -97.939492 
L 97.785059 -99.829813 
L 97.965009 -101.720134 
L 98.19664 -103.610455 
L 98.464339 -105.500776 
L 98.750692 -107.391097 
L 99.036915 -109.281418 
L 99.303296 -111.171739 
L 99.529645 -113.06206 
L 99.695743 -114.952381 
L 99.781776 -116.842702 
L 99.768772 -118.733023 
L 99.639025 -120.623344 
L 99.376513 -122.513665 
L 98.967316 -124.403985 
L 98.400017 -126.294306 
L 97.666095 -128.184627 
L 96.760287 -130.074948 
L 95.680916 -131.965269 
L 94.430164 -133.85559 
L 93.01428 -135.745911 
L 91.443688 -137.636232 
L 89.733009 -139.526553 
L 87.900946 -141.416874 
L 85.97005 -143.307195 
L 83.966349 -145.197516 
L 81.918845 -147.087837 
L 79.858874 -148.978158 
L 77.81937 -150.868479 
L 75.834017 -152.7588 
L 73.936359 -154.649121 
L 72.158871 -156.539442 
L 70.532036 -158.429763 
L 69.083489 -160.320084 
L 67.837234 -162.210405 
L 66.813008 -164.100725 
L 66.025795 -165.991046 
L 65.485533 -167.881367 
L 65.197016 -169.771688 
L 65.16 -171.662009 
L 65.369497 -173.55233 
L 65.816238 -175.442651 
L 66.487262 -177.332972 
L 67.366604 -179.223293 
L 68.436022 -181.113614 
L 69.675726 -183.003935 
L 71.065053 -184.894256 
L 72.583074 -186.784577 
L 74.209081 -188.674898 
L 75.92296 -190.565219 
L 77.705434 -192.45554 
L 79.538205 -194.345861 
L 81.403986 -196.236182 
L 83.286484 -198.126503 
L 85.170331 -200.016824 
L 87.041018 -201.907145 
L 88.884842 -203.797465 
L 90.688891 -205.687786 
L 92.441072 -207.578107 
L 94.130199 -209.468428 
L 95.746108 -211.358749 
L 97.279817 -213.24907 
L 98.723687 -215.139391 
L 100.071578 -217.029712 
L 101.318982 -218.920033 
L 102.463101 -220.810354 
L 103.502883 -222.700675 
L 104.438984 -224.590996 
L 105.273673 -226.481317 
L 106.010678 -228.371638 
L 106.654981 -230.261959 
L 107.212584 -232.15228 
L 107.690251 -234.042601 
L 108.095241 -235.932922 
L 108.435061 -237.823243 
L 108.717228 -239.713564 
L 110.882772 -239.713564 
L 110.882772 -239.713564 
L 111.164939 -237.823243 
L 111.504759 -235.932922 
L 111.909749 -234.042601 
L 112.387416 -232.15228 
L 112.945019 -230.261959 
L 113.589322 -228.371638 
L 114.326327 -226.481317 
L 115.161016 -224.590996 
L 116.097117 -222.700675 
L 117.136899 -220.810354 
L 118.281018 -218.920033 
L 119.528422 -217.029712 
L 120.876313 -215.139391 
L 122.320183 -213.24907 
L 123.853892 -211.358749 
L 125.469801 -209.468428 
L 127.158928 -207.578107 
L 128.911109 -205.687786 
L 130.715158 -203.797465 
L 132.558982 -201.907145 
L 134.429669 -200.016824 
L 136.313516 -198.126503 
L 138.196014 -196.236182 
L 140.061795 -194.345861 
L 141.894566 -192.45554 
L 143.67704 -190.565219 
L 145.390919 -188.674898 
L 147.016926 -186.784577 
L 148.534947 -184.894256 
L 149.924274 -183.003935 
L 151.163978 -181.113614 
L 152.233396 -179.223293 
L 153.112738 -177.332972 
L 153.783762 -175.442651 
L 154.230503 -173.55233 
L 154.44 -171.662009 
L 154.402984 -169.771688 
L 154.114467 -167.881367 
L 153.574205 -165.991046 
L 152.786992 -164.100725 
L 151.762766 -162.210405 
L 150.516511 -160.320084 
L 149.067964 -158.429763 
L 147.441129 -156.539442 
L 145.663641 -154.649121 
L 143.765983 -152.7588 
L 141.78063 -150.868479 
L 139.741126 -148.978158 
L 137.681155 -147.087837 
L 135.633651 -145.197516 
L 133.62995 -143.307195 
L 131.699054 -141.416874 
L 129.866991 -139.526553 
L 128.156312 -137.636232 
L 126.58572 -135.745911 
L 125.169836 -133.85559 
L 123.919084 -131.965269 
L 122.839713 -130.074948 
L 121.933905 -128.184627 
L 121.199983 -126.294306 
L 120.632684 -124.403985 
L 120.223487 -122.513665 
L 119.960975 -120.623344 
L 119.831228 -118.733023 
L 119.818224 -116.842702 
L 119.904257 -114.952381 
L 120.070355 -113.06206 
L 120.296704 -111.171739 
L 120.563085 -109.281418 
L 120.849308 -107.391097 
L 121.135661 -105.500776 
L 121.40336 -103.610455 
L 121.634991 -101.720134 
L 121.814941 -99.829813 
L 121.929802 -97.939492 
L 121.968721 -96.049171 
L 121.923691 -94.15885 
L 121.789745 -92.268529 
L 121.565061 -90.378208 
L 121.250938 -88.487887 
L 120.851663 -86.597566 
L 120.374252 -84.707245 
L 119.828079 -82.816925 
L 119.224422 -80.926604 
L 118.575933 -79.036283 
L 117.896074 -77.145962 
L 117.198539 -75.255641 
L 116.496711 -73.36532 
L 115.80316 -71.474999 
L 115.129225 -69.584678 
L 114.484691 -67.694357 
L 113.877565 -65.804036 
L 113.313961 -63.913715 
L 112.798094 -62.023394 
L 112.332351 -60.133073 
L 111.91745 -58.242752 
L 111.552652 -56.352431 
L 111.236003 -54.46211 
L 110.964602 -52.571789 
z
" style="stroke: #3d3d3d; stroke-width: 1.5"/>
    </defs>
    <g clip-path="url(#pdabda11008)">
     <use xlink:href="#me44dd4f052" x="0" y="288" style="fill: #3274a1; stroke: #3d3d3d; stroke-width: 1.5"/>
    </g>
   </g>
   <g id="PolyCollection_2">
    <defs>
     <path id="m27e03d431c" d="M 222.373688 -45.883636 
L 220.426312 -45.883636 
L 220.16449 -47.880331 
L 219.847421 -49.877025 
L 219.467677 -51.873719 
L 219.017877 -53.870413 
L 218.490955 -55.867107 
L 217.880463 -57.863802 
L 217.18089 -59.860496 
L 216.387986 -61.85719 
L 215.499063 -63.853884 
L 214.513253 -65.850579 
L 213.431707 -67.847273 
L 212.257708 -69.843967 
L 210.996681 -71.840661 
L 209.6561 -73.837355 
L 208.245279 -75.83405 
L 206.775067 -77.830744 
L 205.257455 -79.827438 
L 203.705126 -81.824132 
L 202.130991 -83.820826 
L 200.547729 -85.817521 
L 198.967404 -87.814215 
L 197.401158 -89.810909 
L 195.859045 -91.807603 
L 194.350005 -93.804298 
L 192.881983 -95.800992 
L 191.462189 -97.797686 
L 190.097466 -99.79438 
L 188.794722 -101.791074 
L 187.561372 -103.787769 
L 186.40574 -105.784463 
L 185.337348 -107.781157 
L 184.367054 -109.777851 
L 183.507002 -111.774545 
L 182.770363 -113.77124 
L 182.170869 -115.767934 
L 181.722183 -117.764628 
L 181.437132 -119.761322 
L 181.326889 -121.758017 
L 181.400153 -123.754711 
L 181.662423 -125.751405 
L 182.115422 -127.748099 
L 182.756716 -129.744793 
L 183.57958 -131.741488 
L 184.573102 -133.738182 
L 185.72252 -135.734876 
L 187.009752 -137.73157 
L 188.414073 -139.728264 
L 189.912872 -141.724959 
L 191.482435 -143.721653 
L 193.098681 -145.718347 
L 194.73783 -147.715041 
L 196.376941 -149.711736 
L 197.994343 -151.70843 
L 199.569932 -153.705124 
L 201.085374 -155.701818 
L 202.524235 -157.698512 
L 203.872066 -159.695207 
L 205.116491 -161.691901 
L 206.247302 -163.688595 
L 207.256586 -165.685289 
L 208.138897 -167.681983 
L 208.891435 -169.678678 
L 209.514236 -171.675372 
L 210.010327 -173.672066 
L 210.385822 -175.66876 
L 210.649913 -177.665455 
L 210.81474 -179.662149 
L 210.895116 -181.658843 
L 210.908104 -183.655537 
L 210.872447 -185.652231 
L 210.807881 -187.648926 
L 210.734362 -189.64562 
L 210.671253 -191.642314 
L 210.636516 -193.639008 
L 210.645967 -195.635702 
L 210.712637 -197.632397 
L 210.846281 -199.629091 
L 211.053069 -201.625785 
L 211.335468 -203.622479 
L 211.692325 -205.619174 
L 212.11913 -207.615868 
L 212.608453 -209.612562 
L 213.150488 -211.609256 
L 213.733702 -213.60595 
L 214.345509 -215.602645 
L 214.972946 -217.599339 
L 215.603309 -219.596033 
L 216.224701 -221.592727 
L 216.826482 -223.589421 
L 217.399604 -225.586116 
L 217.936817 -227.58281 
L 218.432755 -229.579504 
L 218.883918 -231.576198 
L 219.288559 -233.572893 
L 219.646494 -235.569587 
L 219.958875 -237.566281 
L 220.227928 -239.562975 
L 220.456681 -241.559669 
L 220.64871 -243.556364 
L 222.15129 -243.556364 
L 222.15129 -243.556364 
L 222.343319 -241.559669 
L 222.572072 -239.562975 
L 222.841125 -237.566281 
L 223.153506 -235.569587 
L 223.511441 -233.572893 
L 223.916082 -231.576198 
L 224.367245 -229.579504 
L 224.863183 -227.58281 
L 225.400396 -225.586116 
L 225.973518 -223.589421 
L 226.575299 -221.592727 
L 227.196691 -219.596033 
L 227.827054 -217.599339 
L 228.454491 -215.602645 
L 229.066298 -213.60595 
L 229.649512 -211.609256 
L 230.191547 -209.612562 
L 230.68087 -207.615868 
L 231.107675 -205.619174 
L 231.464532 -203.622479 
L 231.746931 -201.625785 
L 231.953719 -199.629091 
L 232.087363 -197.632397 
L 232.154033 -195.635702 
L 232.163484 -193.639008 
L 232.128747 -191.642314 
L 232.065638 -189.64562 
L 231.992119 -187.648926 
L 231.927553 -185.652231 
L 231.891896 -183.655537 
L 231.904884 -181.658843 
L 231.98526 -179.662149 
L 232.150087 -177.665455 
L 232.414178 -175.66876 
L 232.789673 -173.672066 
L 233.285764 -171.675372 
L 233.908565 -169.678678 
L 234.661103 -167.681983 
L 235.543414 -165.685289 
L 236.552698 -163.688595 
L 237.683509 -161.691901 
L 238.927934 -159.695207 
L 240.275765 -157.698512 
L 241.714626 -155.701818 
L 243.230068 -153.705124 
L 244.805657 -151.70843 
L 246.423059 -149.711736 
L 248.06217 -147.715041 
L 249.701319 -145.718347 
L 251.317565 -143.721653 
L 252.887128 -141.724959 
L 254.385927 -139.728264 
L 255.790248 -137.73157 
L 257.07748 -135.734876 
L 258.226898 -133.738182 
L 259.22042 -131.741488 
L 260.043284 -129.744793 
L 260.684578 -127.748099 
L 261.137577 -125.751405 
L 261.399847 -123.754711 
L 261.473111 -121.758017 
L 261.362868 -119.761322 
L 261.077817 -117.764628 
L 260.629131 -115.767934 
L 260.029637 -113.77124 
L 259.292998 -111.774545 
L 258.432946 -109.777851 
L 257.462652 -107.781157 
L 256.39426 -105.784463 
L 255.238628 -103.787769 
L 254.005278 -101.791074 
L 252.702534 -99.79438 
L 251.337811 -97.797686 
L 249.918017 -95.800992 
L 248.449995 -93.804298 
L 246.940955 -91.807603 
L 245.398842 -89.810909 
L 243.832596 -87.814215 
L 242.252271 -85.817521 
L 240.669009 -83.820826 
L 239.094874 -81.824132 
L 237.542545 -79.827438 
L 236.024933 -77.830744 
L 234.554721 -75.83405 
L 233.1439 -73.837355 
L 231.803319 -71.840661 
L 230.542292 -69.843967 
L 229.368293 -67.847273 
L 228.286747 -65.850579 
L 227.300937 -63.853884 
L 226.412014 -61.85719 
L 225.61911 -59.860496 
L 224.919537 -57.863802 
L 224.309045 -55.867107 
L 223.782123 -53.870413 
L 223.332323 -51.873719 
L 222.952579 -49.877025 
L 222.63551 -47.880331 
L 222.373688 -45.883636 
z
" style="stroke: #3d3d3d; stroke-width: 1.5"/>
    </defs>
    <g clip-path="url(#pdabda11008)">
     <use xlink:href="#m27e03d431c" x="0" y="288" style="fill: #e1812c; stroke: #3d3d3d; stroke-width: 1.5"/>
    </g>
   </g>
   <g id="PolyCollection_3">
    <defs>
     <path id="md094e8439a" d="M 333.351162 -49.786882 
L 332.648838 -49.786882 
L 332.541404 -51.675982 
L 332.408574 -53.565082 
L 332.246683 -55.454182 
L 332.052187 -57.343282 
L 331.821859 -59.232381 
L 331.553009 -61.121481 
L 331.243712 -63.010581 
L 330.893034 -64.899681 
L 330.501222 -66.788781 
L 330.069852 -68.677881 
L 329.601902 -70.56698 
L 329.101731 -72.45608 
L 328.574952 -74.34518 
L 328.028193 -76.23428 
L 327.468745 -78.12338 
L 326.904108 -80.012479 
L 326.341479 -81.901579 
L 325.787198 -83.790679 
L 325.246222 -85.679779 
L 324.721658 -87.568879 
L 324.214423 -89.457979 
L 323.723058 -91.347078 
L 323.243729 -93.236178 
L 322.770436 -95.125278 
L 322.295391 -97.014378 
L 321.809562 -98.903478 
L 321.303308 -100.792578 
L 320.76707 -102.681677 
L 320.192017 -104.570777 
L 319.570627 -106.459877 
L 318.897121 -108.348977 
L 318.167735 -110.238077 
L 317.380826 -112.127176 
L 316.536799 -114.016276 
L 315.637908 -115.905376 
L 314.687958 -117.794476 
L 313.691951 -119.683576 
L 312.655734 -121.572676 
L 311.585685 -123.461775 
L 310.488477 -125.350875 
L 309.37094 -127.239975 
L 308.240046 -129.129075 
L 307.103007 -131.018175 
L 305.967492 -132.907275 
L 304.841916 -134.796374 
L 303.735785 -136.685474 
L 302.660027 -138.574574 
L 301.627238 -140.463674 
L 300.65179 -142.352774 
L 299.749707 -144.241873 
L 298.938267 -146.130973 
L 298.235286 -148.020073 
L 297.658104 -149.909173 
L 297.222307 -151.798273 
L 296.9403 -153.687373 
L 296.819855 -155.576472 
L 296.862826 -157.465572 
L 297.064181 -159.354672 
L 297.411545 -161.243772 
L 297.885358 -163.132872 
L 298.459715 -165.021972 
L 299.103879 -166.911071 
L 299.784368 -168.800171 
L 300.467447 -170.689271 
L 301.121798 -172.578371 
L 301.721122 -174.467471 
L 302.246394 -176.35657 
L 302.687561 -178.24567 
L 303.0445 -180.13477 
L 303.32713 -182.02387 
L 303.554678 -183.91297 
L 303.754161 -185.80207 
L 303.958216 -187.691169 
L 304.202499 -189.580269 
L 304.522864 -191.469369 
L 304.952579 -193.358469 
L 305.519796 -195.247569 
L 306.245482 -197.136669 
L 307.141942 -199.025768 
L 308.212033 -200.914868 
L 309.449089 -202.803968 
L 310.837521 -204.693068 
L 312.354016 -206.582168 
L 313.969189 -208.471267 
L 315.649551 -210.360367 
L 317.359611 -212.249467 
L 319.063954 -214.138567 
L 320.729139 -216.027667 
L 322.325301 -217.916767 
L 323.827365 -219.805866 
L 325.21583 -221.694966 
L 326.477116 -223.584066 
L 327.603502 -225.473166 
L 328.592721 -227.362266 
L 329.447278 -229.251366 
L 330.173597 -231.140465 
L 330.781074 -233.029565 
L 331.281124 -234.918665 
L 331.686292 -236.807765 
L 334.313708 -236.807765 
L 334.313708 -236.807765 
L 334.718876 -234.918665 
L 335.218926 -233.029565 
L 335.826403 -231.140465 
L 336.552722 -229.251366 
L 337.407279 -227.362266 
L 338.396498 -225.473166 
L 339.522884 -223.584066 
L 340.78417 -221.694966 
L 342.172635 -219.805866 
L 343.674699 -217.916767 
L 345.270861 -216.027667 
L 346.936046 -214.138567 
L 348.640389 -212.249467 
L 350.350449 -210.360367 
L 352.030811 -208.471267 
L 353.645984 -206.582168 
L 355.162479 -204.693068 
L 356.550911 -202.803968 
L 357.787967 -200.914868 
L 358.858058 -199.025768 
L 359.754518 -197.136669 
L 360.480204 -195.247569 
L 361.047421 -193.358469 
L 361.477136 -191.469369 
L 361.797501 -189.580269 
L 362.041784 -187.691169 
L 362.245839 -185.80207 
L 362.445322 -183.91297 
L 362.67287 -182.02387 
L 362.9555 -180.13477 
L 363.312439 -178.24567 
L 363.753606 -176.35657 
L 364.278878 -174.467471 
L 364.878202 -172.578371 
L 365.532553 -170.689271 
L 366.215632 -168.800171 
L 366.896121 -166.911071 
L 367.540285 -165.021972 
L 368.114642 -163.132872 
L 368.588455 -161.243772 
L 368.935819 -159.354672 
L 369.137174 -157.465572 
L 369.180145 -155.576472 
L 369.0597 -153.687373 
L 368.777693 -151.798273 
L 368.341896 -149.909173 
L 367.764714 -148.020073 
L 367.061733 -146.130973 
L 366.250293 -144.241873 
L 365.34821 -142.352774 
L 364.372762 -140.463674 
L 363.339973 -138.574574 
L 362.264215 -136.685474 
L 361.158084 -134.796374 
L 360.032508 -132.907275 
L 358.896993 -131.018175 
L 357.759954 -129.129075 
L 356.62906 -127.239975 
L 355.511523 -125.350875 
L 354.414315 -123.461775 
L 353.344266 -121.572676 
L 352.308049 -119.683576 
L 351.312042 -117.794476 
L 350.362092 -115.905376 
L 349.463201 -114.016276 
L 348.619174 -112.127176 
L 347.832265 -110.238077 
L 347.102879 -108.348977 
L 346.429373 -106.459877 
L 345.807983 -104.570777 
L 345.23293 -102.681677 
L 344.696692 -100.792578 
L 344.190438 -98.903478 
L 343.704609 -97.014378 
L 343.229564 -95.125278 
L 342.756271 -93.236178 
L 342.276942 -91.347078 
L 341.785577 -89.457979 
L 341.278342 -87.568879 
L 340.753778 -85.679779 
L 340.212802 -83.790679 
L 339.658521 -81.901579 
L 339.095892 -80.012479 
L 338.531255 -78.12338 
L 337.971807 -76.23428 
L 337.425048 -74.34518 
L 336.898269 -72.45608 
L 336.398098 -70.56698 
L 335.930148 -68.677881 
L 335.498778 -66.788781 
L 335.106966 -64.899681 
L 334.756288 -63.010581 
L 334.446991 -61.121481 
L 334.178141 -59.232381 
L 333.947813 -57.343282 
L 333.753317 -55.454182 
L 333.591426 -53.565082 
L 333.458596 -51.675982 
L 333.351162 -49.786882 
z
" style="stroke: #3d3d3d; stroke-width: 1.5"/>
    </defs>
    <g clip-path="url(#pdabda11008)">
     <use xlink:href="#md094e8439a" x="0" y="288" style="fill: #3a923a; stroke: #3d3d3d; stroke-width: 1.5"/>
    </g>
   </g>
   <g id="matplotlib.axis_1">
    <g id="xtick_1">
     <g id="line2d_1">
      <defs>
       <path id="m7280a5f2f1" d="M 0 0 
L 0 3.5 
" style="stroke: #000000; stroke-width: 0.8"/>
      </defs>
      <g>
       <use xlink:href="#m7280a5f2f1" x="109.8" y="252" style="stroke: #000000; stroke-width: 0.8"/>
      </g>
     </g>
     <g id="text_1">
      <!-- Plantar -->
      <g transform="translate(92.083594 266.598437)scale(0.1 -0.1)">
       <defs>
        <path id="DejaVuSans-50" d="M 1259 4147 
L 1259 2394 
L 2053 2394 
Q 2494 2394 2734 2622 
Q 2975 2850 2975 3272 
Q 2975 3691 2734 3919 
Q 2494 4147 2053 4147 
L 1259 4147 
z
M 628 4666 
L 2053 4666 
Q 2838 4666 3239 4311 
Q 3641 3956 3641 3272 
Q 3641 2581 3239 2228 
Q 2838 1875 2053 1875 
L 1259 1875 
L 1259 0 
L 628 0 
L 628 4666 
z
" transform="scale(0.015625)"/>
        <path id="DejaVuSans-6c" d="M 603 4863 
L 1178 4863 
L 1178 0 
L 603 0 
L 603 4863 
z
" transform="scale(0.015625)"/>
        <path id="DejaVuSans-61" d="M 2194 1759 
Q 1497 1759 1228 1600 
Q 959 1441 959 1056 
Q 959 750 1161 570 
Q 1363 391 1709 391 
Q 2188 391 2477 730 
Q 2766 1069 2766 1631 
L 2766 1759 
L 2194 1759 
z
M 3341 1997 
L 3341 0 
L 2766 0 
L 2766 531 
Q 2569 213 2275 61 
Q 1981 -91 1556 -91 
Q 1019 -91 701 211 
Q 384 513 384 1019 
Q 384 1609 779 1909 
Q 1175 2209 1959 2209 
L 2766 2209 
L 2766 2266 
Q 2766 2663 2505 2880 
Q 2244 3097 1772 3097 
Q 1472 3097 1187 3025 
Q 903 2953 641 2809 
L 641 3341 
Q 956 3463 1253 3523 
Q 1550 3584 1831 3584 
Q 2591 3584 2966 3190 
Q 3341 2797 3341 1997 
z
" transform="scale(0.015625)"/>
        <path id="DejaVuSans-6e" d="M 3513 2113 
L 3513 0 
L 2938 0 
L 2938 2094 
Q 2938 2591 2744 2837 
Q 2550 3084 2163 3084 
Q 1697 3084 1428 2787 
Q 1159 2491 1159 1978 
L 1159 0 
L 581 0 
L 581 3500 
L 1159 3500 
L 1159 2956 
Q 1366 3272 1645 3428 
Q 1925 3584 2291 3584 
Q 2894 3584 3203 3211 
Q 3513 2838 3513 2113 
z
" transform="scale(0.015625)"/>
        <path id="DejaVuSans-74" d="M 1172 4494 
L 1172 3500 
L 2356 3500 
L 2356 3053 
L 1172 3053 
L 1172 1153 
Q 1172 725 1289 603 
Q 1406 481 1766 481 
L 2356 481 
L 2356 0 
L 1766 0 
Q 1100 0 847 248 
Q 594 497 594 1153 
L 594 3053 
L 172 3053 
L 172 3500 
L 594 3500 
L 594 4494 
L 1172 4494 
z
" transform="scale(0.015625)"/>
        <path id="DejaVuSans-72" d="M 2631 2963 
Q 2534 3019 2420 3045 
Q 2306 3072 2169 3072 
Q 1681 3072 1420 2755 
Q 1159 2438 1159 1844 
L 1159 0 
L 581 0 
L 581 3500 
L 1159 3500 
L 1159 2956 
Q 1341 3275 1631 3429 
Q 1922 3584 2338 3584 
Q 2397 3584 2469 3576 
Q 2541 3569 2628 3553 
L 2631 2963 
z
" transform="scale(0.015625)"/>
       </defs>
       <use xlink:href="#DejaVuSans-50"/>
       <use xlink:href="#DejaVuSans-6c" x="60.302734"/>
       <use xlink:href="#DejaVuSans-61" x="88.085938"/>
       <use xlink:href="#DejaVuSans-6e" x="149.365234"/>
       <use xlink:href="#DejaVuSans-74" x="212.744141"/>
       <use xlink:href="#DejaVuSans-61" x="251.953125"/>
       <use xlink:href="#DejaVuSans-72" x="313.232422"/>
      </g>
     </g>
    </g>
    <g id="xtick_2">
     <g id="line2d_2">
      <g>
       <use xlink:href="#m7280a5f2f1" x="221.4" y="252" style="stroke: #000000; stroke-width: 0.8"/>
      </g>
     </g>
     <g id="text_2">
      <!-- Both -->
      <g transform="translate(209.78125 266.598437)scale(0.1 -0.1)">
       <defs>
        <path id="DejaVuSans-42" d="M 1259 2228 
L 1259 519 
L 2272 519 
Q 2781 519 3026 730 
Q 3272 941 3272 1375 
Q 3272 1813 3026 2020 
Q 2781 2228 2272 2228 
L 1259 2228 
z
M 1259 4147 
L 1259 2741 
L 2194 2741 
Q 2656 2741 2882 2914 
Q 3109 3088 3109 3444 
Q 3109 3797 2882 3972 
Q 2656 4147 2194 4147 
L 1259 4147 
z
M 628 4666 
L 2241 4666 
Q 2963 4666 3353 4366 
Q 3744 4066 3744 3513 
Q 3744 3084 3544 2831 
Q 3344 2578 2956 2516 
Q 3422 2416 3680 2098 
Q 3938 1781 3938 1306 
Q 3938 681 3513 340 
Q 3088 0 2303 0 
L 628 0 
L 628 4666 
z
" transform="scale(0.015625)"/>
        <path id="DejaVuSans-6f" d="M 1959 3097 
Q 1497 3097 1228 2736 
Q 959 2375 959 1747 
Q 959 1119 1226 758 
Q 1494 397 1959 397 
Q 2419 397 2687 759 
Q 2956 1122 2956 1747 
Q 2956 2369 2687 2733 
Q 2419 3097 1959 3097 
z
M 1959 3584 
Q 2709 3584 3137 3096 
Q 3566 2609 3566 1747 
Q 3566 888 3137 398 
Q 2709 -91 1959 -91 
Q 1206 -91 779 398 
Q 353 888 353 1747 
Q 353 2609 779 3096 
Q 1206 3584 1959 3584 
z
" transform="scale(0.015625)"/>
        <path id="DejaVuSans-68" d="M 3513 2113 
L 3513 0 
L 2938 0 
L 2938 2094 
Q 2938 2591 2744 2837 
Q 2550 3084 2163 3084 
Q 1697 3084 1428 2787 
Q 1159 2491 1159 1978 
L 1159 0 
L 581 0 
L 581 4863 
L 1159 4863 
L 1159 2956 
Q 1366 3272 1645 3428 
Q 1925 3584 2291 3584 
Q 2894 3584 3203 3211 
Q 3513 2838 3513 2113 
z
" transform="scale(0.015625)"/>
       </defs>
       <use xlink:href="#DejaVuSans-42"/>
       <use xlink:href="#DejaVuSans-6f" x="68.603516"/>
       <use xlink:href="#DejaVuSans-74" x="129.785156"/>
       <use xlink:href="#DejaVuSans-68" x="168.994141"/>
      </g>
     </g>
    </g>
    <g id="xtick_3">
     <g id="line2d_3">
      <g>
       <use xlink:href="#m7280a5f2f1" x="333" y="252" style="stroke: #000000; stroke-width: 0.8"/>
      </g>
     </g>
     <g id="text_3">
      <!-- common -->
      <g transform="translate(311.222656 266.598437)scale(0.1 -0.1)">
       <defs>
        <path id="DejaVuSans-63" d="M 3122 3366 
L 3122 2828 
Q 2878 2963 2633 3030 
Q 2388 3097 2138 3097 
Q 1578 3097 1268 2742 
Q 959 2388 959 1747 
Q 959 1106 1268 751 
Q 1578 397 2138 397 
Q 2388 397 2633 464 
Q 2878 531 3122 666 
L 3122 134 
Q 2881 22 2623 -34 
Q 2366 -91 2075 -91 
Q 1284 -91 818 406 
Q 353 903 353 1747 
Q 353 2603 823 3093 
Q 1294 3584 2113 3584 
Q 2378 3584 2631 3529 
Q 2884 3475 3122 3366 
z
" transform="scale(0.015625)"/>
        <path id="DejaVuSans-6d" d="M 3328 2828 
Q 3544 3216 3844 3400 
Q 4144 3584 4550 3584 
Q 5097 3584 5394 3201 
Q 5691 2819 5691 2113 
L 5691 0 
L 5113 0 
L 5113 2094 
Q 5113 2597 4934 2840 
Q 4756 3084 4391 3084 
Q 3944 3084 3684 2787 
Q 3425 2491 3425 1978 
L 3425 0 
L 2847 0 
L 2847 2094 
Q 2847 2600 2669 2842 
Q 2491 3084 2119 3084 
Q 1678 3084 1418 2786 
Q 1159 2488 1159 1978 
L 1159 0 
L 581 0 
L 581 3500 
L 1159 3500 
L 1159 2956 
Q 1356 3278 1631 3431 
Q 1906 3584 2284 3584 
Q 2666 3584 2933 3390 
Q 3200 3197 3328 2828 
z
" transform="scale(0.015625)"/>
       </defs>
       <use xlink:href="#DejaVuSans-63"/>
       <use xlink:href="#DejaVuSans-6f" x="54.980469"/>
       <use xlink:href="#DejaVuSans-6d" x="116.162109"/>
       <use xlink:href="#DejaVuSans-6d" x="213.574219"/>
       <use xlink:href="#DejaVuSans-6f" x="310.986328"/>
       <use xlink:href="#DejaVuSans-6e" x="372.167969"/>
      </g>
     </g>
    </g>
    <g id="text_4">
     <!-- type -->
     <g transform="translate(210.229688 280.276563)scale(0.1 -0.1)">
      <defs>
       <path id="DejaVuSans-79" d="M 2059 -325 
Q 1816 -950 1584 -1140 
Q 1353 -1331 966 -1331 
L 506 -1331 
L 506 -850 
L 844 -850 
Q 1081 -850 1212 -737 
Q 1344 -625 1503 -206 
L 1606 56 
L 191 3500 
L 800 3500 
L 1894 763 
L 2988 3500 
L 3597 3500 
L 2059 -325 
z
" transform="scale(0.015625)"/>
       <path id="DejaVuSans-70" d="M 1159 525 
L 1159 -1331 
L 581 -1331 
L 581 3500 
L 1159 3500 
L 1159 2969 
Q 1341 3281 1617 3432 
Q 1894 3584 2278 3584 
Q 2916 3584 3314 3078 
Q 3713 2572 3713 1747 
Q 3713 922 3314 415 
Q 2916 -91 2278 -91 
Q 1894 -91 1617 61 
Q 1341 213 1159 525 
z
M 3116 1747 
Q 3116 2381 2855 2742 
Q 2594 3103 2138 3103 
Q 1681 3103 1420 2742 
Q 1159 2381 1159 1747 
Q 1159 1113 1420 752 
Q 1681 391 2138 391 
Q 2594 391 2855 752 
Q 3116 1113 3116 1747 
z
" transform="scale(0.015625)"/>
       <path id="DejaVuSans-65" d="M 3597 1894 
L 3597 1613 
L 953 1613 
Q 991 1019 1311 708 
Q 1631 397 2203 397 
Q 2534 397 2845 478 
Q 3156 559 3463 722 
L 3463 178 
Q 3153 47 2828 -22 
Q 2503 -91 2169 -91 
Q 1331 -91 842 396 
Q 353 884 353 1716 
Q 353 2575 817 3079 
Q 1281 3584 2069 3584 
Q 2775 3584 3186 3129 
Q 3597 2675 3597 1894 
z
M 3022 2063 
Q 3016 2534 2758 2815 
Q 2500 3097 2075 3097 
Q 1594 3097 1305 2825 
Q 1016 2553 972 2059 
L 3022 2063 
z
" transform="scale(0.015625)"/>
      </defs>
      <use xlink:href="#DejaVuSans-74"/>
      <use xlink:href="#DejaVuSans-79" x="39.208984"/>
      <use xlink:href="#DejaVuSans-70" x="98.388672"/>
      <use xlink:href="#DejaVuSans-65" x="161.865234"/>
     </g>
    </g>
   </g>
   <g id="matplotlib.axis_2">
    <g id="ytick_1">
     <g id="line2d_4">
      <defs>
       <path id="mb9e0686a6f" d="M 0 0 
L -3.5 0 
" style="stroke: #000000; stroke-width: 0.8"/>
      </defs>
      <g>
       <use xlink:href="#mb9e0686a6f" x="54" y="247.135379" style="stroke: #000000; stroke-width: 0.8"/>
      </g>
     </g>
     <g id="text_5">
      <!-- −2.5 -->
      <g transform="translate(22.717187 250.934598)scale(0.1 -0.1)">
       <defs>
        <path id="DejaVuSans-2212" d="M 678 2272 
L 4684 2272 
L 4684 1741 
L 678 1741 
L 678 2272 
z
" transform="scale(0.015625)"/>
        <path id="DejaVuSans-32" d="M 1228 531 
L 3431 531 
L 3431 0 
L 469 0 
L 469 531 
Q 828 903 1448 1529 
Q 2069 2156 2228 2338 
Q 2531 2678 2651 2914 
Q 2772 3150 2772 3378 
Q 2772 3750 2511 3984 
Q 2250 4219 1831 4219 
Q 1534 4219 1204 4116 
Q 875 4013 500 3803 
L 500 4441 
Q 881 4594 1212 4672 
Q 1544 4750 1819 4750 
Q 2544 4750 2975 4387 
Q 3406 4025 3406 3419 
Q 3406 3131 3298 2873 
Q 3191 2616 2906 2266 
Q 2828 2175 2409 1742 
Q 1991 1309 1228 531 
z
" transform="scale(0.015625)"/>
        <path id="DejaVuSans-2e" d="M 684 794 
L 1344 794 
L 1344 0 
L 684 0 
L 684 794 
z
" transform="scale(0.015625)"/>
        <path id="DejaVuSans-35" d="M 691 4666 
L 3169 4666 
L 3169 4134 
L 1269 4134 
L 1269 2991 
Q 1406 3038 1543 3061 
Q 1681 3084 1819 3084 
Q 2600 3084 3056 2656 
Q 3513 2228 3513 1497 
Q 3513 744 3044 326 
Q 2575 -91 1722 -91 
Q 1428 -91 1123 -41 
Q 819 9 494 109 
L 494 744 
Q 775 591 1075 516 
Q 1375 441 1709 441 
Q 2250 441 2565 725 
Q 2881 1009 2881 1497 
Q 2881 1984 2565 2268 
Q 2250 2553 1709 2553 
Q 1456 2553 1204 2497 
Q 953 2441 691 2322 
L 691 4666 
z
" transform="scale(0.015625)"/>
       </defs>
       <use xlink:href="#DejaVuSans-2212"/>
       <use xlink:href="#DejaVuSans-32" x="83.789062"/>
       <use xlink:href="#DejaVuSans-2e" x="147.412109"/>
       <use xlink:href="#DejaVuSans-35" x="179.199219"/>
      </g>
     </g>
    </g>
    <g id="ytick_2">
     <g id="line2d_5">
      <g>
       <use xlink:href="#mb9e0686a6f" x="54" y="218.681851" style="stroke: #000000; stroke-width: 0.8"/>
      </g>
     </g>
     <g id="text_6">
      <!-- 0.0 -->
      <g transform="translate(31.096875 222.48107)scale(0.1 -0.1)">
       <defs>
        <path id="DejaVuSans-30" d="M 2034 4250 
Q 1547 4250 1301 3770 
Q 1056 3291 1056 2328 
Q 1056 1369 1301 889 
Q 1547 409 2034 409 
Q 2525 409 2770 889 
Q 3016 1369 3016 2328 
Q 3016 3291 2770 3770 
Q 2525 4250 2034 4250 
z
M 2034 4750 
Q 2819 4750 3233 4129 
Q 3647 3509 3647 2328 
Q 3647 1150 3233 529 
Q 2819 -91 2034 -91 
Q 1250 -91 836 529 
Q 422 1150 422 2328 
Q 422 3509 836 4129 
Q 1250 4750 2034 4750 
z
" transform="scale(0.015625)"/>
       </defs>
       <use xlink:href="#DejaVuSans-30"/>
       <use xlink:href="#DejaVuSans-2e" x="63.623047"/>
       <use xlink:href="#DejaVuSans-30" x="95.410156"/>
      </g>
     </g>
    </g>
    <g id="ytick_3">
     <g id="line2d_6">
      <g>
       <use xlink:href="#mb9e0686a6f" x="54" y="190.228322" style="stroke: #000000; stroke-width: 0.8"/>
      </g>
     </g>
     <g id="text_7">
      <!-- 2.5 -->
      <g transform="translate(31.096875 194.027541)scale(0.1 -0.1)">
       <use xlink:href="#DejaVuSans-32"/>
       <use xlink:href="#DejaVuSans-2e" x="63.623047"/>
       <use xlink:href="#DejaVuSans-35" x="95.410156"/>
      </g>
     </g>
    </g>
    <g id="ytick_4">
     <g id="line2d_7">
      <g>
       <use xlink:href="#mb9e0686a6f" x="54" y="161.774794" style="stroke: #000000; stroke-width: 0.8"/>
      </g>
     </g>
     <g id="text_8">
      <!-- 5.0 -->
      <g transform="translate(31.096875 165.574012)scale(0.1 -0.1)">
       <use xlink:href="#DejaVuSans-35"/>
       <use xlink:href="#DejaVuSans-2e" x="63.623047"/>
       <use xlink:href="#DejaVuSans-30" x="95.410156"/>
      </g>
     </g>
    </g>
    <g id="ytick_5">
     <g id="line2d_8">
      <g>
       <use xlink:href="#mb9e0686a6f" x="54" y="133.321265" style="stroke: #000000; stroke-width: 0.8"/>
      </g>
     </g>
     <g id="text_9">
      <!-- 7.5 -->
      <g transform="translate(31.096875 137.120484)scale(0.1 -0.1)">
       <defs>
        <path id="DejaVuSans-37" d="M 525 4666 
L 3525 4666 
L 3525 4397 
L 1831 0 
L 1172 0 
L 2766 4134 
L 525 4134 
L 525 4666 
z
" transform="scale(0.015625)"/>
       </defs>
       <use xlink:href="#DejaVuSans-37"/>
       <use xlink:href="#DejaVuSans-2e" x="63.623047"/>
       <use xlink:href="#DejaVuSans-35" x="95.410156"/>
      </g>
     </g>
    </g>
    <g id="ytick_6">
     <g id="line2d_9">
      <g>
       <use xlink:href="#mb9e0686a6f" x="54" y="104.867736" style="stroke: #000000; stroke-width: 0.8"/>
      </g>
     </g>
     <g id="text_10">
      <!-- 10.0 -->
      <g transform="translate(24.734375 108.666955)scale(0.1 -0.1)">
       <defs>
        <path id="DejaVuSans-31" d="M 794 531 
L 1825 531 
L 1825 4091 
L 703 3866 
L 703 4441 
L 1819 4666 
L 2450 4666 
L 2450 531 
L 3481 531 
L 3481 0 
L 794 0 
L 794 531 
z
" transform="scale(0.015625)"/>
       </defs>
       <use xlink:href="#DejaVuSans-31"/>
       <use xlink:href="#DejaVuSans-30" x="63.623047"/>
       <use xlink:href="#DejaVuSans-2e" x="127.246094"/>
       <use xlink:href="#DejaVuSans-30" x="159.033203"/>
      </g>
     </g>
    </g>
    <g id="ytick_7">
     <g id="line2d_10">
      <g>
       <use xlink:href="#mb9e0686a6f" x="54" y="76.414208" style="stroke: #000000; stroke-width: 0.8"/>
      </g>
     </g>
     <g id="text_11">
      <!-- 12.5 -->
      <g transform="translate(24.734375 80.213427)scale(0.1 -0.1)">
       <use xlink:href="#DejaVuSans-31"/>
       <use xlink:href="#DejaVuSans-32" x="63.623047"/>
       <use xlink:href="#DejaVuSans-2e" x="127.246094"/>
       <use xlink:href="#DejaVuSans-35" x="159.033203"/>
      </g>
     </g>
    </g>
    <g id="ytick_8">
     <g id="line2d_11">
      <g>
       <use xlink:href="#mb9e0686a6f" x="54" y="47.960679" style="stroke: #000000; stroke-width: 0.8"/>
      </g>
     </g>
     <g id="text_12">
      <!-- 15.0 -->
      <g transform="translate(24.734375 51.759898)scale(0.1 -0.1)">
       <use xlink:href="#DejaVuSans-31"/>
       <use xlink:href="#DejaVuSans-35" x="63.623047"/>
       <use xlink:href="#DejaVuSans-2e" x="127.246094"/>
       <use xlink:href="#DejaVuSans-30" x="159.033203"/>
      </g>
     </g>
    </g>
    <g id="text_13">
     <!-- time -->
     <g transform="translate(16.6375 154.576094)rotate(-90)scale(0.1 -0.1)">
      <defs>
       <path id="DejaVuSans-69" d="M 603 3500 
L 1178 3500 
L 1178 0 
L 603 0 
L 603 3500 
z
M 603 4863 
L 1178 4863 
L 1178 4134 
L 603 4134 
L 603 4863 
z
" transform="scale(0.015625)"/>
      </defs>
      <use xlink:href="#DejaVuSans-74"/>
      <use xlink:href="#DejaVuSans-69" x="39.208984"/>
      <use xlink:href="#DejaVuSans-6d" x="66.992188"/>
      <use xlink:href="#DejaVuSans-65" x="164.404297"/>
     </g>
    </g>
   </g>
   <g id="line2d_12">
    <path d="M 109.8 144.702676 
L 109.8 84.950266 
" clip-path="url(#pdabda11008)" style="fill: none; stroke: #3d3d3d; stroke-width: 1.5; stroke-linecap: square"/>
   </g>
   <g id="line2d_13">
    <path d="M 109.8 133.321265 
L 109.8 109.135766 
" clip-path="url(#pdabda11008)" style="fill: none; stroke: #3d3d3d; stroke-width: 4.5; stroke-linecap: square"/>
   </g>
   <g id="line2d_14">
    <path d="M 221.4 204.455087 
L 221.4 82.104913 
" clip-path="url(#pdabda11008)" style="fill: none; stroke: #3d3d3d; stroke-width: 1.5; stroke-linecap: square"/>
   </g>
   <g id="line2d_15">
    <path d="M 221.4 184.537616 
L 221.4 141.857324 
" clip-path="url(#pdabda11008)" style="fill: none; stroke: #3d3d3d; stroke-width: 4.5; stroke-linecap: square"/>
   </g>
   <g id="line2d_16">
    <path d="M 333 207.300439 
L 333 82.104913 
" clip-path="url(#pdabda11008)" style="fill: none; stroke: #3d3d3d; stroke-width: 1.5; stroke-linecap: square"/>
   </g>
   <g id="line2d_17">
    <path d="M 333 151.816059 
L 333 100.599707 
" clip-path="url(#pdabda11008)" style="fill: none; stroke: #3d3d3d; stroke-width: 4.5; stroke-linecap: square"/>
   </g>
   <g id="patch_3">
    <path d="M 54 252 
L 54 34.56 
" style="fill: none; stroke: #000000; stroke-width: 0.8; stroke-linejoin: miter; stroke-linecap: square"/>
   </g>
   <g id="patch_4">
    <path d="M 388.8 252 
L 388.8 34.56 
" style="fill: none; stroke: #000000; stroke-width: 0.8; stroke-linejoin: miter; stroke-linecap: square"/>
   </g>
   <g id="patch_5">
    <path d="M 54 252 
L 388.8 252 
" style="fill: none; stroke: #000000; stroke-width: 0.8; stroke-linejoin: miter; stroke-linecap: square"/>
   </g>
   <g id="patch_6">
    <path d="M 54 34.56 
L 388.8 34.56 
" style="fill: none; stroke: #000000; stroke-width: 0.8; stroke-linejoin: miter; stroke-linecap: square"/>
   </g>
   <g id="PathCollection_1">
    <defs>
     <path id="mfeaf2f0d51" d="M 0 1.5 
C 0.397805 1.5 0.77937 1.341951 1.06066 1.06066 
C 1.341951 0.77937 1.5 0.397805 1.5 0 
C 1.5 -0.397805 1.341951 -0.77937 1.06066 -1.06066 
C 0.77937 -1.341951 0.397805 -1.5 0 -1.5 
C -0.397805 -1.5 -0.77937 -1.341951 -1.06066 -1.06066 
C -1.341951 -0.77937 -1.5 -0.397805 -1.5 0 
C -1.5 0.397805 -1.341951 0.77937 -1.06066 1.06066 
C -0.77937 1.341951 -0.397805 1.5 0 1.5 
z
" style="stroke: #3d3d3d"/>
    </defs>
    <g clip-path="url(#pdabda11008)">
     <use xlink:href="#mfeaf2f0d51" x="109.8" y="119.094501" style="fill: #ffffff; stroke: #3d3d3d"/>
    </g>
   </g>
   <g id="PathCollection_2">
    <g clip-path="url(#pdabda11008)">
     <use xlink:href="#mfeaf2f0d51" x="221.4" y="161.774794" style="fill: #ffffff; stroke: #3d3d3d"/>
    </g>
   </g>
   <g id="PathCollection_3">
    <g clip-path="url(#pdabda11008)">
     <use xlink:href="#mfeaf2f0d51" x="333" y="127.630559" style="fill: #ffffff; stroke: #3d3d3d"/>
    </g>
   </g>
  </g>
 </g>
 <defs>
  <clipPath id="pdabda11008">
   <rect x="54" y="34.56" width="334.8" height="217.44"/>
  </clipPath>
 </defs>
</svg>
